<svg class="main-svg" xmlns="http://www.w3.org/2000/svg" xmlns:xlink="http://www.w3.org/1999/xlink" width="360" height="280" style="" viewBox="0 0 360 280"><rect x="0" y="0" width="360" height="280" style="fill: rgb(255, 255, 255); fill-opacity: 1;"/><defs id="defs-f3651a"><g class="clips"><clipPath id="clipf3651apolar-for-traces"><path d="M110,0A110,110 0,1,0 -110,-1.3471114790620885e-14A110,110 0,1,0 110,2.694222958124177e-14Z" transform="translate(110,110)"/></clipPath></g><g class="gradients"/><g class="patterns"/></defs><g class="bglayer"/><g class="layer-below"><g class="imagelayer"/><g class="shapelayer"/></g><g class="cartesianlayer"/><g class="polarlayer"><g class="polar"><g class="polarsublayer draglayer"/><g class="polarsublayer plotbg"><path d="M110,0A110,110 0,1,0 -110,-1.3471114790620885e-14A110,110 0,1,0 110,2.694222958124177e-14Z" transform="translate(180,140)" style="fill: rgb(255, 255, 255); fill-opacity: 1;"/></g><g class="polarsublayer backplot"><g class="maplayer"/></g><g class="polarsublayer angular-grid" style="fill: none;"><path class="angularaxisgrid" d="M180,140L180,30" style="stroke: rgb(213, 213, 213); stroke-opacity: 1; stroke-width: 1px;"/><path class="angularaxisgrid" d="M180,140L235,44.73720558371174" style="stroke: rgb(213, 213, 213); stroke-opacity: 1; stroke-width: 1px;"/><path class="angularaxisgrid" d="M180,140L275.2627944162882,85" style="stroke: rgb(213, 213, 213); stroke-opacity: 1; stroke-width: 1px;"/><path class="angularaxisgrid" d="M180,140L290,140" style="stroke: rgb(213, 213, 213); stroke-opacity: 1; stroke-width: 1px;"/><path class="angularaxisgrid" d="M180,140L275.2627944162883,194.99999999999997" style="stroke: rgb(213, 213, 213); stroke-opacity: 1; stroke-width: 1px;"/><path class="angularaxisgrid" d="M180,140L235,235.26279441628827" style="stroke: rgb(213, 213, 213); stroke-opacity: 1; stroke-width: 1px;"/><path class="angularaxisgrid" d="M180,140L180,250" style="stroke: rgb(213, 213, 213); stroke-opacity: 1; stroke-width: 1px;"/><path class="angularaxisgrid" d="M180,140L125.00000000000003,235.26279441628827" style="stroke: rgb(213, 213, 213); stroke-opacity: 1; stroke-width: 1px;"/><path class="angularaxisgrid" d="M180,140L84.73720558371177,195.00000000000003" style="stroke: rgb(213, 213, 213); stroke-opacity: 1; stroke-width: 1px;"/><path class="angularaxisgrid" d="M180,140L70,140" style="stroke: rgb(213, 213, 213); stroke-opacity: 1; stroke-width: 1px;"/><path class="angularaxisgrid" d="M180,140L84.73720558371176,84.99999999999999" style="stroke: rgb(213, 213, 213); stroke-opacity: 1; stroke-width: 1px;"/><path class="angularaxisgrid" d="M180,140L124.99999999999994,44.737205583711784" style="stroke: rgb(213, 213, 213); stroke-opacity: 1; stroke-width: 1px;"/></g><g class="polarsublayer radial-grid" transform="translate(180,140)" style="fill: none;"><path class="xgrid" d="M26.19,0A26.19,26.19 0,1,0 -26.19,-3.207349966966918e-15A26.19,26.19 0,1,0 26.19,6.414699933933836e-15Z" style="stroke: rgb(213, 213, 213); stroke-opacity: 1; stroke-width: 1px;"/><path class="xgrid" d="M52.38,0A52.38,52.38 0,1,0 -52.38,-6.414699933933836e-15A52.38,52.38 0,1,0 52.38,1.2829399867867672e-14Z" style="stroke: rgb(213, 213, 213); stroke-opacity: 1; stroke-width: 1px;"/><path class="xgrid" d="M78.57,0A78.57,78.57 0,1,0 -78.57,-9.622049900900754e-15A78.57,78.57 0,1,0 78.57,1.9244099801801508e-14Z" style="stroke: rgb(213, 213, 213); stroke-opacity: 1; stroke-width: 1px;"/><path class="xgrid" d="M104.76,0A104.76,104.76 0,1,0 -104.76,-1.2829399867867672e-14A104.76,104.76 0,1,0 104.76,2.5658799735735345e-14Z" style="stroke: rgb(213, 213, 213); stroke-opacity: 1; stroke-width: 1px;"/></g><g class="polarsublayer frontplot" transform="translate(70,30)"><g class="barlayer"/><g class="scatterlayer"><g class="trace scatter tracef2c18c" style="stroke-miterlimit: 2; opacity: 1;"><g class="fills" clip-path="url(#clipf3651apolar-for-traces)"><g><path class="js-fill" d="M110,24.09L148.87,42.68L172.4,73.98L180,110L170.48,144.92L143.92,168.74L110,176.48L78.66,164.28L58.74,139.6L56.85,110L66.04,84.62L91.48,77.93L110,24.09ZM110,42.46L101.41,95.12L84.87,95.49L77.99,110L78.2,128.36L89.55,145.42L110,153.53L133.13,150.06L152.1,134.3L159.12,110L154.14,84.52L138.05,61.41L110,42.46Z" style="fill: rgb(35, 143, 157); fill-opacity: 0.18; stroke-width: 0;"/></g></g><g class="errorbars"/><g class="lines"><path class="js-line" d="M110,42.46L138.05,61.41L154.14,84.52L159.12,110L152.1,134.3L133.13,150.06L110,153.53L89.55,145.42L78.2,128.36L77.99,110L84.87,95.49L101.41,95.12L110,42.46" clip-path="url(#clipf3651apolar-for-traces)" style="vector-effect: none; fill: none; stroke: rgb(0, 0, 0); stroke-opacity: 0; stroke-width: 0.5px; opacity: 1;"/></g><g class="points" clip-path="url(#clipf3651apolar-for-traces)"/><g class="text" clip-path="url(#clipf3651apolar-for-traces)"/></g><g class="trace scatter tracedbe515" style="stroke-miterlimit: 2; opacity: 1;"><g class="fills" clip-path="url(#clipf3651apolar-for-traces)"/><g class="errorbars"/><g class="lines"><path class="js-line" d="M110,24.09L148.87,42.68L172.4,73.98L180,110L170.48,144.92L143.92,168.74L110,176.48L78.66,164.28L58.74,139.6L56.85,110L66.04,84.62L91.48,77.93L110,24.09" clip-path="url(#clipf3651apolar-for-traces)" style="vector-effect: none; fill: none; stroke: rgb(0, 0, 0); stroke-opacity: 0; stroke-width: 0.5px; opacity: 1;"/></g><g class="points" clip-path="url(#clipf3651apolar-for-traces)"/><g class="text" clip-path="url(#clipf3651apolar-for-traces)"/></g><g class="trace scatter tracebc21c5" style="stroke-miterlimit: 2; opacity: 1;"><g class="fills" clip-path="url(#clipf3651apolar-for-traces)"/><g class="errorbars"/><g class="lines"><path class="js-line" d="M110,32.27L143.82,51.43L163.61,79.05L169.86,110L161.55,139.76L138.63,159.58L110,165.14L84.12,154.83L68.66,133.87L67.85,110L75.98,90.36L97.07,87.61L110,32.27" clip-path="url(#clipf3651apolar-for-traces)" style="vector-effect: none; fill: none; stroke: rgb(35, 143, 157); stroke-opacity: 1; stroke-width: 1.6px; opacity: 1;"/></g><g class="points"><path class="point" transform="translate(110,32.27)" d="M2.5,0A2.5,2.5 0 1,1 0,-2.5A2.5,2.5 0 0,1 2.5,0Z" style="opacity: 1; stroke-width: 0.6px; fill: rgb(35, 143, 157); fill-opacity: 1; stroke: rgb(255, 255, 255); stroke-opacity: 1;"/><path class="point" transform="translate(143.82,51.43)" d="M2.5,0A2.5,2.5 0 1,1 0,-2.5A2.5,2.5 0 0,1 2.5,0Z" style="opacity: 1; stroke-width: 0.6px; fill: rgb(35, 143, 157); fill-opacity: 1; stroke: rgb(255, 255, 255); stroke-opacity: 1;"/><path class="point" transform="translate(163.61,79.05)" d="M2.5,0A2.5,2.5 0 1,1 0,-2.5A2.5,2.5 0 0,1 2.5,0Z" style="opacity: 1; stroke-width: 0.6px; fill: rgb(35, 143, 157); fill-opacity: 1; stroke: rgb(255, 255, 255); stroke-opacity: 1;"/><path class="point" transform="translate(169.86,110)" d="M2.5,0A2.5,2.5 0 1,1 0,-2.5A2.5,2.5 0 0,1 2.5,0Z" style="opacity: 1; stroke-width: 0.6px; fill: rgb(35, 143, 157); fill-opacity: 1; stroke: rgb(255, 255, 255); stroke-opacity: 1;"/><path class="point" transform="translate(161.55,139.76)" d="M2.5,0A2.5,2.5 0 1,1 0,-2.5A2.5,2.5 0 0,1 2.5,0Z" style="opacity: 1; stroke-width: 0.6px; fill: rgb(35, 143, 157); fill-opacity: 1; stroke: rgb(255, 255, 255); stroke-opacity: 1;"/><path class="point" transform="translate(138.63,159.58)" d="M2.5,0A2.5,2.5 0 1,1 0,-2.5A2.5,2.5 0 0,1 2.5,0Z" style="opacity: 1; stroke-width: 0.6px; fill: rgb(35, 143, 157); fill-opacity: 1; stroke: rgb(255, 255, 255); stroke-opacity: 1;"/><path class="point" transform="translate(110,165.14)" d="M2.5,0A2.5,2.5 0 1,1 0,-2.5A2.5,2.5 0 0,1 2.5,0Z" style="opacity: 1; stroke-width: 0.6px; fill: rgb(35, 143, 157); fill-opacity: 1; stroke: rgb(255, 255, 255); stroke-opacity: 1;"/><path class="point" transform="translate(84.12,154.83)" d="M2.5,0A2.5,2.5 0 1,1 0,-2.5A2.5,2.5 0 0,1 2.5,0Z" style="opacity: 1; stroke-width: 0.6px; fill: rgb(35, 143, 157); fill-opacity: 1; stroke: rgb(255, 255, 255); stroke-opacity: 1;"/><path class="point" transform="translate(68.66,133.87)" d="M2.5,0A2.5,2.5 0 1,1 0,-2.5A2.5,2.5 0 0,1 2.5,0Z" style="opacity: 1; stroke-width: 0.6px; fill: rgb(35, 143, 157); fill-opacity: 1; stroke: rgb(255, 255, 255); stroke-opacity: 1;"/><path class="point" transform="translate(67.85,110)" d="M2.5,0A2.5,2.5 0 1,1 0,-2.5A2.5,2.5 0 0,1 2.5,0Z" style="opacity: 1; stroke-width: 0.6px; fill: rgb(35, 143, 157); fill-opacity: 1; stroke: rgb(255, 255, 255); stroke-opacity: 1;"/><path class="point" transform="translate(75.98,90.36)" d="M2.5,0A2.5,2.5 0 1,1 0,-2.5A2.5,2.5 0 0,1 2.5,0Z" style="opacity: 1; stroke-width: 0.6px; fill: rgb(35, 143, 157); fill-opacity: 1; stroke: rgb(255, 255, 255); stroke-opacity: 1;"/><path class="point" transform="translate(97.07,87.61)" d="M2.5,0A2.5,2.5 0 1,1 0,-2.5A2.5,2.5 0 0,1 2.5,0Z" style="opacity: 1; stroke-width: 0.6px; fill: rgb(35, 143, 157); fill-opacity: 1; stroke: rgb(255, 255, 255); stroke-opacity: 1;"/><path class="point" transform="translate(110,32.27)" d="M2.5,0A2.5,2.5 0 1,1 0,-2.5A2.5,2.5 0 0,1 2.5,0Z" style="opacity: 1; stroke-width: 0.6px; fill: rgb(35, 143, 157); fill-opacity: 1; stroke: rgb(255, 255, 255); stroke-opacity: 1;"/></g><g class="text"/></g></g></g><g class="polarsublayer angular-line"><path d="M110,0A110,110 0,1,0 -110,-1.3471114790620885e-14A110,110 0,1,0 110,2.694222958124177e-14Z" transform="translate(180,140)" stroke-width="1" style="fill: none; stroke: rgb(213, 213, 213); stroke-opacity: 1;"/></g><g class="polarsublayer radial-line"><line x1="0" y1="0" x2="110" y2="0" transform="translate(180,140)" stroke-width="1" style="fill: none; stroke: rgb(213, 213, 213); stroke-opacity: 1;"/></g><g class="polarsublayer angular-axis"><g class="angularaxistick"><text text-anchor="middle" x="1.7757378587636624e-16" y="-5.300000000000001" transform="translate(180,30)" style="font-family: Arial; font-size: 12px; fill: rgb(0, 0, 0); fill-opacity: 1; white-space: pre;">CHO-K1 cells</text></g><g class="angularaxistick"><text text-anchor="start" x="1.45" y="-2.4899346400575264" transform="translate(235,44.73720558371174)" style="font-family: Arial; font-size: 12px; fill: rgb(0, 0, 0); fill-opacity: 1; white-space: pre;">NIH-3T3 cells</text></g><g class="angularaxistick"><text text-anchor="start" x="2.511473670974872" y="0.9873066958946413" transform="translate(275.2627944162882,85)" style="font-family: Arial; font-size: 12px; fill: rgb(0, 0, 0); fill-opacity: 1; white-space: pre;">other</text></g><g class="angularaxistick"><text text-anchor="start" x="2.9000000000000004" y="4.199999999999999" transform="translate(290,140)" style="font-family: Arial; font-size: 12px; fill: rgb(0, 0, 0); fill-opacity: 1; white-space: pre;">HeLa cells</text></g><g class="angularaxistick"><text text-anchor="start" x="2.5114736709748726" y="11.08730669589464" transform="translate(275.2627944162883,194.99999999999997)" style="font-family: Arial; font-size: 12px; fill: rgb(0, 0, 0); fill-opacity: 1; white-space: pre;">MCF7 cells</text></g><g class="angularaxistick"><text text-anchor="start" x="1.45" y="15.003778516388136" transform="translate(235,235.26279441628827)translate(0,-1.0450018504813783)" style="font-family: Arial; font-size: 12px; fill: rgb(0, 0, 0); fill-opacity: 1; white-space: pre;"><tspan class="line" dy="0em" x="1.45" y="15.003778516388136">MDA-MB-231</tspan><tspan class="line" dy="1.3em" x="1.45" y="15.003778516388136">cells</tspan></text></g><g class="angularaxistick"><text text-anchor="middle" x="1.7757378587636624e-16" y="14.9" transform="translate(180,250)" style="font-family: Arial; font-size: 12px; fill: rgb(0, 0, 0); fill-opacity: 1; white-space: pre;">HaCaT cells</text></g><g class="angularaxistick"><text text-anchor="end" x="-1.4499999999999995" y="15.003778516388135" transform="translate(125.00000000000003,235.26279441628827)translate(0,-1.0450018504813783)" style="font-family: Arial; font-size: 12px; fill: rgb(0, 0, 0); fill-opacity: 1; white-space: pre;"><tspan class="line" dy="0em" x="-1.4499999999999995" y="15.003778516388135">Human bowes</tspan><tspan class="line" dy="1.3em" x="-1.4499999999999995" y="15.003778516388135">melanoma cells</tspan></text></g><g class="angularaxistick"><text text-anchor="end" x="-2.5114736709748717" y="11.087306695894647" transform="translate(84.73720558371177,195.00000000000003)" style="font-family: Arial; font-size: 12px; fill: rgb(0, 0, 0); fill-opacity: 1; white-space: pre;">HEK293 cells</text></g><g class="angularaxistick"><text text-anchor="end" x="-2.9000000000000004" y="4.200000000000001" transform="translate(70,140)" style="font-family: Arial; font-size: 12px; fill: rgb(0, 0, 0); fill-opacity: 1; white-space: pre;">CHO cells</text></g><g class="angularaxistick"><text text-anchor="end" x="-2.511473670974872" y="0.9873066958946408" transform="translate(84.73720558371176,84.99999999999999)" style="font-family: Arial; font-size: 12px; fill: rgb(0, 0, 0); fill-opacity: 1; white-space: pre;">A549 cells</text></g><g class="angularaxistick"><text text-anchor="end" x="-1.4500000000000015" y="-2.4899346400575224" transform="translate(124.99999999999994,44.737205583711784)" style="font-family: Arial; font-size: 12px; fill: rgb(0, 0, 0); fill-opacity: 1; white-space: pre;">U87 cells</text></g></g><g class="polarsublayer radial-axis" transform="translate(180,140)"><g class="xtick"><text text-anchor="middle" x="0" y="14.9" transform="" style="font-family: Arial; font-size: 12px; fill: rgb(128, 128, 128); fill-opacity: 1; white-space: pre;">0.00</text></g><g class="xtick"><text text-anchor="middle" x="0" y="14.9" transform="translate(26.19,0)" style="font-family: Arial; font-size: 12px; fill: rgb(128, 128, 128); fill-opacity: 1; white-space: pre;">0.25</text></g><g class="xtick"><text text-anchor="middle" x="0" y="14.9" transform="translate(52.38,0)" style="font-family: Arial; font-size: 12px; fill: rgb(128, 128, 128); fill-opacity: 1; white-space: pre;">0.50</text></g><g class="xtick"><text text-anchor="middle" x="0" y="14.9" transform="translate(78.57,0)" style="font-family: Arial; font-size: 12px; fill: rgb(128, 128, 128); fill-opacity: 1; white-space: pre;">0.75</text></g><g class="xtick"><text text-anchor="middle" x="0" y="14.9" transform="translate(104.76,0)" style="font-family: Arial; font-size: 12px; fill: rgb(128, 128, 128); fill-opacity: 1; white-space: pre;">1.00</text></g></g></g></g><g class="smithlayer"/><g class="ternarylayer"/><g class="geolayer"/><g class="funnelarealayer"/><g class="pielayer"/><g class="iciclelayer"/><g class="treemaplayer"/><g class="sunburstlayer"/><g class="glimages"/><defs id="topdefs-f3651a"><g class="clips"/></defs><g class="layer-above"><g class="imagelayer"/><g class="shapelayer"/></g><g class="infolayer"><g class="g-gtitle"/><g class="g-polartitle"/></g></svg>