<svg class="main-svg" xmlns="http://www.w3.org/2000/svg" xmlns:xlink="http://www.w3.org/1999/xlink" width="320" height="300" style="" viewBox="0 0 320 300"><rect x="0" y="0" width="320" height="300" style="fill: rgb(255, 255, 255); fill-opacity: 1;"/><defs id="defs-9da55a"><g class="clips"/><g class="gradients"/><g class="patterns"/></defs><g class="bglayer"/><g class="layer-below"><g class="imagelayer"/><g class="shapelayer"/></g><g class="cartesianlayer"/><g class="polarlayer"/><g class="smithlayer"/><g class="ternarylayer"/><g class="geolayer"/><g class="funnelarealayer"/><g class="pielayer"><g class="trace" stroke-linejoin="round" style="opacity: 1;"><g class="slice"><path class="surface" d="M154.32090972483294,199.17314240158447a49.50000000000001,49.50000000000001 0 1 0 5.6790902751670576,-98.67314240158446l0,-40.49999999999999a90,90 0 1 1 -10.325618682121922,179.40571345742626Z" style="pointer-events: none; fill: rgb(35, 143, 157); fill-opacity: 1; stroke-width: 1.5; stroke: rgb(255, 255, 255); stroke-opacity: 1;"/><g class="slicetext"><text data-notex="1" class="slicetext" transform="translate(229.43779664211772,158.16164492106245)scale(0.9230769230769231)" text-anchor="middle" x="0" y="0" style="font-family: Arial; font-size: 13px; fill: rgb(255, 255, 255); fill-opacity: 1; white-space: pre;">51.8%</text></g></g><g class="slice"><path class="surface" d="M111.46635764303926,159.7332193834633a49.50000000000001,49.50000000000001 0 0 0 42.854552081793685,39.43992301812115l-4.6465284069548645,40.23257105584182a90,90 0 0 1 -77.91736742144306,-71.70895094203844Z" style="pointer-events: none; fill: rgb(157, 204, 239); fill-opacity: 1; stroke-width: 1.5; stroke: rgb(255, 255, 255); stroke-opacity: 1;"/><g class="slicetext"><text data-notex="1" class="slicetext" transform="translate(112.56853226066222,205.47683731899824)scale(0.9230769230769231)" text-anchor="middle" x="0" y="0" style="font-family: Arial; font-size: 13px; fill: rgb(255, 255, 255); fill-opacity: 1; white-space: pre;">20%</text></g></g><g class="slice"><path class="surface" d="M160,100.5a49.50000000000001,49.50000000000001 0 0 0 -48.53364235696073,59.233219383463315l-39.70934374660424,7.963543131924523a90,90 0 0 1 88.24298610356496,-107.69676251538783Z" style="pointer-events: none; fill: rgb(253, 154, 68); fill-opacity: 1; stroke-width: 1.5; stroke: rgb(255, 255, 255); stroke-opacity: 1;"/><g class="slicetext"><text data-notex="1" class="slicetext" transform="translate(105.85081933720858,109.94727491563789)scale(0.9230769230769231)" text-anchor="middle" x="0" y="0" style="font-family: Arial; font-size: 13px; fill: rgb(255, 255, 255); fill-opacity: 1; white-space: pre;">28.1%</text></g></g></g><g class="trace" stroke-linejoin="round" style="opacity: 1;"><g class="slice"><path class="surface" d="M154.32090972483294,199.17314240158447a49.50000000000001,49.50000000000001 0 1 0 5.6790902751670576,-98.67314240158446l0,-40.49999999999999a90,90 0 1 1 -10.325618682121922,179.40571345742626Z" style="pointer-events: none; fill: rgb(0, 0, 0); fill-opacity: 0; stroke-width: 0; stroke: rgb(68, 68, 68); stroke-opacity: 1;"/><g class="slicetext"><text data-notex="1" class="slicetext" transform="translate(273.69505553077227,159.19446439134333)" text-anchor="middle" x="0" y="0" style="font-family: Arial; font-size: 12px; fill: rgb(0, 0, 0); fill-opacity: 1; white-space: pre;">Binders</text></g></g><g class="slice"><path class="surface" d="M111.46635764303926,159.7332193834633a49.50000000000001,49.50000000000001 0 0 0 42.854552081793685,39.43992301812115l-4.6465284069548645,40.23257105584182a90,90 0 0 1 -77.91736742144306,-71.70895094203844Z" style="pointer-events: none; fill: rgb(0, 0, 0); fill-opacity: 0; stroke-width: 0; stroke: rgb(68, 68, 68); stroke-opacity: 1;"/><g class="slicetext"><text data-notex="1" class="slicetext" transform="translate(66.5456053673557,224.01316488620853)" text-anchor="middle" x="0" y="0" style="font-family: Arial; font-size: 12px; fill: rgb(0, 0, 0); fill-opacity: 1; white-space: pre;">«Sensors»</text></g></g><g class="slice"><path class="surface" d="M160,100.5a49.50000000000001,49.50000000000001 0 0 0 -48.53364235696073,59.233219383463315l-39.70934374660424,7.963543131924523a90,90 0 0 1 88.24298610356496,-107.69676251538783Z" style="pointer-events: none; fill: rgb(0, 0, 0); fill-opacity: 0; stroke-width: 0; stroke: rgb(68, 68, 68); stroke-opacity: 1;"/><g class="slicetext"><text data-notex="1" class="slicetext" transform="translate(54.1967380405669,94.14747034959491)" text-anchor="middle" x="0" y="0" style="font-family: Arial; font-size: 12px; fill: rgb(0, 0, 0); fill-opacity: 1; white-space: pre;">Non-binders</text></g></g></g></g><g class="iciclelayer"/><g class="treemaplayer"/><g class="sunburstlayer"/><g class="glimages"/><defs id="topdefs-9da55a"><g class="clips"/></defs><g class="layer-above"><g class="imagelayer"/><g class="shapelayer"/></g><g class="infolayer"><g class="g-gtitle"/></g></svg>