<svg class="main-svg" xmlns="http://www.w3.org/2000/svg" xmlns:xlink="http://www.w3.org/1999/xlink" width="500" height="500" style="" viewBox="0 0 500 500"><rect x="0" y="0" width="500" height="500" style="fill: rgb(255, 255, 255); fill-opacity: 1;"/><defs id="defs-c745b0"><g class="clips"><clipPath id="clipc745b0polar-for-traces"><path d="M158,0A158,158 0,1,0 -158,-1.9349419426528182e-14A158,158 0,1,0 158,3.8698838853056364e-14Z" transform="translate(158,158)"/></clipPath></g><g class="gradients"/><g class="patterns"/></defs><g class="bglayer"/><g class="layer-below"><g class="imagelayer"/><g class="shapelayer"/></g><g class="cartesianlayer"/><g class="polarlayer"><g class="polar"><g class="polarsublayer draglayer"/><g class="polarsublayer plotbg"><path d="M158,0A158,158 0,1,0 -158,-1.9349419426528182e-14A158,158 0,1,0 158,3.8698838853056364e-14Z" transform="translate(250,262)" style="fill: rgb(255, 255, 255); fill-opacity: 1;"/></g><g class="polarsublayer backplot"><g class="maplayer"/></g><g class="polarsublayer angular-grid" style="fill: none;"><path class="angularaxisgrid" d="M250,262L408,262" style="stroke: rgb(213, 213, 213); stroke-opacity: 1; stroke-width: 1px;"/><path class="angularaxisgrid" d="M250,262L403.0361394583237,222.70699782795293" style="stroke: rgb(213, 213, 213); stroke-opacity: 1; stroke-width: 1px;"/><path class="angularaxisgrid" d="M250,262L388.4564554469305,185.882919491929" style="stroke: rgb(213, 213, 213); stroke-opacity: 1; stroke-width: 1px;"/><path class="angularaxisgrid" d="M250,262L365.17704313258304,153.8415572632672" style="stroke: rgb(213, 213, 213); stroke-opacity: 1; stroke-width: 1px;"/><path class="angularaxisgrid" d="M250,262L334.6606336066815,128.5961877706816" style="stroke: rgb(213, 213, 213); stroke-opacity: 1; stroke-width: 1px;"/><path class="angularaxisgrid" d="M250,262L298.8246851112417,111.73307042536575" style="stroke: rgb(213, 213, 213); stroke-opacity: 1; stroke-width: 1px;"/><path class="angularaxisgrid" d="M250,262L259.92090208563155,104.31177690833309" style="stroke: rgb(213, 213, 213); stroke-opacity: 1; stroke-width: 1px;"/><path class="angularaxisgrid" d="M250,262L220.3937522954555,106.7986143848672" style="stroke: rgb(213, 213, 213); stroke-opacity: 1; stroke-width: 1px;"/><path class="angularaxisgrid" d="M250,262L182.7268719327185,119.03732571036892" style="stroke: rgb(213, 213, 213); stroke-opacity: 1; stroke-width: 1px;"/><path class="angularaxisgrid" d="M250,262L149.28700961970702,140.2589076414253" style="stroke: rgb(213, 213, 213); stroke-opacity: 1; stroke-width: 1px;"/><path class="angularaxisgrid" d="M250,262L122.17531488875832,169.12993013778924" style="stroke: rgb(213, 213, 213); stroke-opacity: 1; stroke-width: 1px;"/><path class="angularaxisgrid" d="M250,262L103.09531522965628,203.83632067582084" style="stroke: rgb(213, 213, 213); stroke-opacity: 1; stroke-width: 1px;"/><path class="angularaxisgrid" d="M250,262L93.24587719231252,242.19734909683987" style="stroke: rgb(213, 213, 213); stroke-opacity: 1; stroke-width: 1px;"/><path class="angularaxisgrid" d="M250,262L93.24587719231249,281.8026509031601" style="stroke: rgb(213, 213, 213); stroke-opacity: 1; stroke-width: 1px;"/><path class="angularaxisgrid" d="M250,262L103.09531522965628,320.1636793241791" style="stroke: rgb(213, 213, 213); stroke-opacity: 1; stroke-width: 1px;"/><path class="angularaxisgrid" d="M250,262L122.17531488875825,354.8700698622107" style="stroke: rgb(213, 213, 213); stroke-opacity: 1; stroke-width: 1px;"/><path class="angularaxisgrid" d="M250,262L149.28700961970705,383.74109235857475" style="stroke: rgb(213, 213, 213); stroke-opacity: 1; stroke-width: 1px;"/><path class="angularaxisgrid" d="M250,262L182.7268719327186,404.96267428963114" style="stroke: rgb(213, 213, 213); stroke-opacity: 1; stroke-width: 1px;"/><path class="angularaxisgrid" d="M250,262L220.3937522954555,417.20138561513284" style="stroke: rgb(213, 213, 213); stroke-opacity: 1; stroke-width: 1px;"/><path class="angularaxisgrid" d="M250,262L259.92090208563144,419.68822309166694" style="stroke: rgb(213, 213, 213); stroke-opacity: 1; stroke-width: 1px;"/><path class="angularaxisgrid" d="M250,262L298.82468511124165,412.2669295746343" style="stroke: rgb(213, 213, 213); stroke-opacity: 1; stroke-width: 1px;"/><path class="angularaxisgrid" d="M250,262L334.6606336066815,395.40381222931836" style="stroke: rgb(213, 213, 213); stroke-opacity: 1; stroke-width: 1px;"/><path class="angularaxisgrid" d="M250,262L365.177043132583,370.15844273673287" style="stroke: rgb(213, 213, 213); stroke-opacity: 1; stroke-width: 1px;"/><path class="angularaxisgrid" d="M250,262L388.45645544693036,338.1170805080711" style="stroke: rgb(213, 213, 213); stroke-opacity: 1; stroke-width: 1px;"/><path class="angularaxisgrid" d="M250,262L403.0361394583237,301.2930021720471" style="stroke: rgb(213, 213, 213); stroke-opacity: 1; stroke-width: 1px;"/></g><g class="polarsublayer radial-grid" transform="translate(250,262)" style="fill: none;"><path class="xgrid" d="M29.05,0A29.05,29.05 0,1,0 -29.05,-3.557598951523061e-15A29.05,29.05 0,1,0 29.05,7.115197903046122e-15Z" style="stroke: rgb(213, 213, 213); stroke-opacity: 1; stroke-width: 1px;"/><path class="xgrid" d="M58.09,0A58.09,58.09 0,1,0 -58.09,-7.113973256246975e-15A58.09,58.09 0,1,0 58.09,1.422794651249395e-14Z" style="stroke: rgb(213, 213, 213); stroke-opacity: 1; stroke-width: 1px;"/><path class="xgrid" d="M87.14,0A87.14,87.14 0,1,0 -87.14,-1.0671572207770037e-14A87.14,87.14 0,1,0 87.14,2.1343144415540073e-14Z" style="stroke: rgb(213, 213, 213); stroke-opacity: 1; stroke-width: 1px;"/><path class="xgrid" d="M116.19,0A116.19,116.19 0,1,0 -116.19,-1.4229171159293096e-14A116.19,116.19 0,1,0 116.19,2.845834231858619e-14Z" style="stroke: rgb(213, 213, 213); stroke-opacity: 1; stroke-width: 1px;"/><path class="xgrid" d="M145.23,0A145.23,145.23 0,1,0 -145.23,-1.778554546401701e-14A145.23,145.23 0,1,0 145.23,3.557109092803402e-14Z" style="stroke: rgb(213, 213, 213); stroke-opacity: 1; stroke-width: 1px;"/></g><g class="polarsublayer frontplot" transform="translate(92,104)" clip-path="url(#clipc745b0polar-for-traces)"><g class="barlayer"/><g class="scatterlayer"><g class="trace scatter trace316f5b" style="stroke-miterlimit: 2; opacity: 1;"><g class="fills"><g><path class="js-fill" d="M197.28,158L173.43,154.04L166.79,153.16L167.59,149L166.26,144.99L171.07,117.78L159.27,137.82L153.82,136.08L129.61,97.67L125.62,118.85L151.48,153.26L147.29,153.76L129.6,154.41L141.71,160.06L47.51,201.75L139.8,171.23L147.45,170.76L149.36,176.36L153.79,180.08L158.75,169.96L159.92,163.91L158.01,158.01L158.31,158.29L158.24,158.13L158.59,158.15L197.28,158Z" style="fill: rgb(79, 79, 79); fill-opacity: 0.05; stroke-width: 0;"/></g></g><g class="errorbars"/><g class="lines"><path class="js-line" d="M197.28,158L173.43,154.04L166.79,153.16L167.59,149L166.26,144.99L171.07,117.78L159.27,137.82L153.82,136.08L129.61,97.67L125.62,118.85L151.48,153.26L147.29,153.76L129.6,154.41L141.71,160.06L47.51,201.75L139.8,171.23L147.45,170.76L149.36,176.36L153.79,180.08L158.75,169.96L159.92,163.91L158.01,158.01L158.31,158.29L158.24,158.13L158.59,158.15L197.28,158" style="vector-effect: none; fill: none; stroke: rgb(79, 79, 79); stroke-opacity: 1; stroke-width: 1.5px; opacity: 1;"/></g><g class="points"/><g class="text"/></g><g class="trace scatter tracefefca8" style="stroke-miterlimit: 2; opacity: 1;"><g class="fills"><g><path class="js-fill" d="M191.99,158L179.14,152.57L166.8,153.16L168.18,148.44L164.19,148.24L173.24,111.1L159.37,136.16L154.4,139.11L129.15,96.7L130.28,124.49L151.47,153.25L149.08,154.47L130.06,154.47L142.19,160L35.7,206.42L144.09,168.11L149.82,167.88L149.27,176.54L153.52,181.49L158.67,168.65L160.59,165.98L158.02,158.03L158.48,158.46L158.31,158.17L158.03,158.01L191.99,158Z" style="fill: rgb(119, 226, 177); fill-opacity: 0.05; stroke-width: 0;"/></g></g><g class="errorbars"/><g class="lines"><path class="js-line" d="M191.99,158L179.14,152.57L166.8,153.16L168.18,148.44L164.19,148.24L173.24,111.1L159.37,136.16L154.4,139.11L129.15,96.7L130.28,124.49L151.47,153.25L149.08,154.47L130.06,154.47L142.19,160L35.7,206.42L144.09,168.11L149.82,167.88L149.27,176.54L153.52,181.49L158.67,168.65L160.59,165.98L158.02,158.03L158.48,158.46L158.31,158.17L158.03,158.01L191.99,158" style="vector-effect: none; fill: none; stroke: rgb(119, 226, 177); stroke-opacity: 1; stroke-width: 1.5px; opacity: 1;"/></g><g class="points"/><g class="text"/></g><g class="trace scatter trace6f87a5" style="stroke-miterlimit: 2; opacity: 1;"><g class="fills"><g><path class="js-fill" d="M199.43,158L168.49,155.31L163.08,155.21L162.68,153.6L163.72,148.99L170.42,119.78L159.31,137.11L155.35,144.13L113.01,62.38L124.89,117.98L150.69,152.69L149.19,154.51L123.61,153.66L136.43,160.73L34.18,207.02L151.41,162.79L153.41,163.54L152.38,169.95L152.39,187.4L158.39,164.27L158,158.01L158.01,158.01L158.01,158.01L158.01,158.01L158.01,158L199.43,158Z" style="fill: rgb(227, 63, 25); fill-opacity: 0.05; stroke-width: 0;"/></g></g><g class="errorbars"/><g class="lines"><path class="js-line" d="M199.43,158L168.49,155.31L163.08,155.21L162.68,153.6L163.72,148.99L170.42,119.78L159.31,137.11L155.35,144.13L113.01,62.38L124.89,117.98L150.69,152.69L149.19,154.51L123.61,153.66L136.43,160.73L34.18,207.02L151.41,162.79L153.41,163.54L152.38,169.95L152.39,187.4L158.39,164.27L158,158.01L158.01,158.01L158.01,158.01L158.01,158.01L158.01,158L199.43,158" style="vector-effect: none; fill: none; stroke: rgb(227, 63, 25); stroke-opacity: 1; stroke-width: 1.5px; opacity: 1;"/></g><g class="points"/><g class="text"/></g><g class="trace scatter tracecc6ed1" style="stroke-miterlimit: 2; opacity: 1;"><g class="fills"><g><path class="js-fill" d="M176.85,158L169.7,155L168.2,152.39L180.52,136.85L162.59,150.76L175.73,103.44L158.79,145.47L157.37,154.68L132.6,104.02L135.24,130.49L152.05,153.67L137.2,149.76L130.84,154.57L129.52,161.6L11.1,216.16L114.14,189.87L150.96,166.51L154.25,165.97L157,163.25L158.44,164.93L158,158.01L158.01,158.01L158.01,158.01L158.01,158L158.01,158L176.85,158Z" style="fill: rgb(7, 106, 107); fill-opacity: 0.05; stroke-width: 0;"/></g></g><g class="errorbars"/><g class="lines"><path class="js-line" d="M176.85,158L169.7,155L168.2,152.39L180.52,136.85L162.59,150.76L175.73,103.44L158.79,145.47L157.37,154.68L132.6,104.02L135.24,130.49L152.05,153.67L137.2,149.76L130.84,154.57L129.52,161.6L11.1,216.16L114.14,189.87L150.96,166.51L154.25,165.97L157,163.25L158.44,164.93L158,158.01L158.01,158.01L158.01,158.01L158.01,158L158.01,158L176.85,158" style="vector-effect: none; fill: none; stroke: rgb(7, 106, 107); stroke-opacity: 1; stroke-width: 1.5px; opacity: 1;"/></g><g class="points"/><g class="text"/></g></g></g><g class="polarsublayer angular-line"><path d="M158,0A158,158 0,1,0 -158,-1.9349419426528182e-14A158,158 0,1,0 158,3.8698838853056364e-14Z" transform="translate(250,262)" stroke-width="1" style="fill: none; stroke: rgb(213, 213, 213); stroke-opacity: 1;"/></g><g class="polarsublayer radial-line"><line x1="0" y1="0" x2="158" y2="0" transform="translate(250,262)" stroke-width="1" style="fill: none; stroke: rgb(213, 213, 213); stroke-opacity: 1;"/></g><g class="polarsublayer angular-axis"><g class="angularaxistick"><text text-anchor="start" x="2.9000000000000004" y="4.199999999999999" transform="translate(408,262)" style="font-family: Arial; font-size: 12px; fill: rgb(0, 0, 0); fill-opacity: 1; white-space: pre;">A</text></g><g class="angularaxistick"><text text-anchor="start" x="2.8088911672730306" y="2.749992874766519" transform="translate(403.0361394583237,222.70699782795293)" style="font-family: Arial; font-size: 12px; fill: rgb(0, 0, 0); fill-opacity: 1; white-space: pre;">C</text></g><g class="angularaxistick"><text text-anchor="start" x="2.5412893721272045" y="1.127193583445135" transform="translate(388.4564554469305,185.882919491929)" style="font-family: Arial; font-size: 12px; fill: rgb(0, 0, 0); fill-opacity: 1; white-space: pre;">D</text></g><g class="angularaxistick"><text text-anchor="start" x="2.114009019522094" y="-0.5664314262521222" transform="translate(365.17704313258304,153.8415572632672)" style="font-family: Arial; font-size: 12px; fill: rgb(0, 0, 0); fill-opacity: 1; white-space: pre;">E</text></g><g class="angularaxistick"><text text-anchor="start" x="1.5538977054390901" y="-2.2244654662488954" transform="translate(334.6606336066815,128.5961877706816)" style="font-family: Arial; font-size: 12px; fill: rgb(0, 0, 0); fill-opacity: 1; white-space: pre;">F</text></g><g class="angularaxistick"><text text-anchor="start" x="0.8961492836873477" y="-3.742728159989535" transform="translate(298.8246851112417,111.73307042536575)" style="font-family: Arial; font-size: 12px; fill: rgb(0, 0, 0); fill-opacity: 1; white-space: pre;">G</text></g><g class="angularaxistick"><text text-anchor="middle" x="0.18209250663500925" y="-5.025821478646723" transform="translate(259.92090208563155,104.31177690833309)" style="font-family: Arial; font-size: 12px; fill: rgb(0, 0, 0); fill-opacity: 1; white-space: pre;">H</text></g><g class="angularaxistick"><text text-anchor="end" x="-0.5434058122986014" y="-4.419120907602008" transform="translate(220.3937522954555,106.7986143848672)" style="font-family: Arial; font-size: 12px; fill: rgb(0, 0, 0); fill-opacity: 1; white-space: pre;">I</text></g><g class="angularaxistick"><text text-anchor="end" x="-1.234759945538711" y="-3.0073103534965986" transform="translate(182.7268719327185,119.03732571036892)" style="font-family: Arial; font-size: 12px; fill: rgb(0, 0, 0); fill-opacity: 1; white-space: pre;">K</text></g><g class="angularaxistick"><text text-anchor="end" x="-1.8485295702712006" y="-1.4065394297671876" transform="translate(149.28700961970702,140.2589076414253)" style="font-family: Arial; font-size: 12px; fill: rgb(0, 0, 0); fill-opacity: 1; white-space: pre;">L</text></g><g class="angularaxistick"><text text-anchor="end" x="-2.3461492836873474" y="0.2826095392246697" transform="translate(122.17531488875832,169.12993013778924)" style="font-family: Arial; font-size: 12px; fill: rgb(0, 0, 0); fill-opacity: 1; white-space: pre;">M</text></g><g class="angularaxistick"><text text-anchor="end" x="-2.6963518090759293" y="1.9540011115018605" transform="translate(103.09531522965628,203.83632067582084)" style="font-family: Arial; font-size: 12px; fill: rgb(0, 0, 0); fill-opacity: 1; white-space: pre;">N</text></g><g class="angularaxistick"><text text-anchor="end" x="-2.877132633811986" y="3.502615607629992" transform="translate(93.24587719231252,242.19734909683987)" style="font-family: Arial; font-size: 12px; fill: rgb(0, 0, 0); fill-opacity: 1; white-space: pre;">P</text></g><g class="angularaxistick"><text text-anchor="end" x="-2.877132633811986" y="6.03434692562894" transform="translate(93.24587719231249,281.8026509031601)" style="font-family: Arial; font-size: 12px; fill: rgb(0, 0, 0); fill-opacity: 1; white-space: pre;">Q</text></g><g class="angularaxistick"><text text-anchor="end" x="-2.6963518090759298" y="9.390117075732356" transform="translate(103.09531522965628,320.1636793241791)" style="font-family: Arial; font-size: 12px; fill: rgb(0, 0, 0); fill-opacity: 1; white-space: pre;">R</text></g><g class="angularaxistick"><text text-anchor="end" x="-2.3461492836873488" y="12.155871635532623" transform="translate(122.17531488875825,354.8700698622107)" style="font-family: Arial; font-size: 12px; fill: rgb(0, 0, 0); fill-opacity: 1; white-space: pre;">S</text></g><g class="angularaxistick"><text text-anchor="end" x="-1.8485295702712" y="14.157828074303758" transform="translate(149.28700961970705,383.74109235857475)" style="font-family: Arial; font-size: 12px; fill: rgb(0, 0, 0); fill-opacity: 1; white-space: pre;">T</text></g><g class="angularaxistick"><text text-anchor="end" x="-1.2347599455387095" y="15.270196106316998" transform="translate(182.7268719327186,404.96267428963114)" style="font-family: Arial; font-size: 12px; fill: rgb(0, 0, 0); fill-opacity: 1; white-space: pre;">V</text></g><g class="angularaxistick"><text text-anchor="end" x="-0.5434058122986015" y="15.423081557117506" transform="translate(220.3937522954555,417.20138561513284)" style="font-family: Arial; font-size: 12px; fill: rgb(0, 0, 0); fill-opacity: 1; white-space: pre;">W</text></g><g class="angularaxistick"><text text-anchor="middle" x="0.18209250663500723" y="15.13431843560436" transform="translate(259.92090208563144,419.68822309166694)" style="font-family: Arial; font-size: 12px; fill: rgb(0, 0, 0); fill-opacity: 1; white-space: pre;">Y</text></g><g class="angularaxistick"><text text-anchor="start" x="0.896149283687347" y="15.468613469172567" transform="translate(298.82468511124165,412.2669295746343)" style="font-family: Arial; font-size: 12px; fill: rgb(0, 0, 0); fill-opacity: 1; white-space: pre;">X</text></g><g class="angularaxistick"><text text-anchor="start" x="1.5538977054390908" y="14.83095862889181" transform="translate(334.6606336066815,395.40381222931836)" style="font-family: Arial; font-size: 12px; fill: rgb(0, 0, 0); fill-opacity: 1; white-space: pre;">Z</text></g><g class="angularaxistick"><text text-anchor="start" x="2.1140090195220926" y="13.261420113507393" transform="translate(365.177043132583,370.15844273673287)" style="font-family: Arial; font-size: 12px; fill: rgb(0, 0, 0); fill-opacity: 1; white-space: pre;">B</text></g><g class="angularaxistick"><text text-anchor="start" x="2.5412893721272036" y="10.858617800299795" transform="translate(388.45645544693036,338.1170805080711)" style="font-family: Arial; font-size: 12px; fill: rgb(0, 0, 0); fill-opacity: 1; white-space: pre;">U</text></g><g class="angularaxistick"><text text-anchor="start" x="2.80889116727303" y="7.773528595496595" transform="translate(403.0361394583237,301.2930021720471)" style="font-family: Arial; font-size: 12px; fill: rgb(0, 0, 0); fill-opacity: 1; white-space: pre;">O</text></g></g><g class="polarsublayer radial-axis" transform="translate(250,262)"><g class="xtick"><text text-anchor="middle" x="0" y="14.9" transform="" style="font-family: Arial; font-size: 12px; fill: rgb(128, 128, 128); fill-opacity: 1; white-space: pre;">0</text></g><g class="xtick"><text text-anchor="middle" x="0" y="14.9" transform="translate(29.05,0)" style="font-family: Arial; font-size: 12px; fill: rgb(128, 128, 128); fill-opacity: 1; white-space: pre;">0.05</text></g><g class="xtick"><text text-anchor="middle" x="0" y="14.9" transform="translate(58.09,0)" style="font-family: Arial; font-size: 12px; fill: rgb(128, 128, 128); fill-opacity: 1; white-space: pre;">0.1</text></g><g class="xtick"><text text-anchor="middle" x="0" y="14.9" transform="translate(87.14,0)" style="font-family: Arial; font-size: 12px; fill: rgb(128, 128, 128); fill-opacity: 1; white-space: pre;">0.15</text></g><g class="xtick"><text text-anchor="middle" x="0" y="14.9" transform="translate(116.19,0)" style="font-family: Arial; font-size: 12px; fill: rgb(128, 128, 128); fill-opacity: 1; white-space: pre;">0.2</text></g><g class="xtick"><text text-anchor="middle" x="0" y="14.9" transform="translate(145.23,0)" style="font-family: Arial; font-size: 12px; fill: rgb(128, 128, 128); fill-opacity: 1; white-space: pre;">0.25</text></g></g></g></g><g class="smithlayer"/><g class="ternarylayer"/><g class="geolayer"/><g class="funnelarealayer"/><g class="pielayer"/><g class="iciclelayer"/><g class="treemaplayer"/><g class="sunburstlayer"/><g class="glimages"/><defs id="topdefs-c745b0"><g class="clips"/><clipPath id="legendc745b0"><rect width="174" height="86" x="0" y="0"/></clipPath></defs><g class="layer-above"><g class="imagelayer"/><g class="shapelayer"/></g><g class="infolayer"><g class="legend" pointer-events="all" transform="translate(163,11.679999999999993)"><rect class="bg" shape-rendering="crispEdges" style="stroke: rgb(68, 68, 68); stroke-opacity: 1; fill: rgb(255, 255, 255); fill-opacity: 1; stroke-width: 0px;" width="174" height="86" x="0" y="0"/><g class="scrollbox" transform="" clip-path="url(#legendc745b0)"><g class="groups"><g class="traces" transform="translate(0,14.5)" style="opacity: 1;"><text class="legendtext" text-anchor="start" x="40" y="4.680000000000001" style="font-family: Arial; font-size: 12px; fill: rgb(0, 0, 0); fill-opacity: 1; white-space: pre;">R (all real)</text><g class="layers" style="opacity: 1;"><g class="legendfill"><path class="js-fill" d="M5,-2h30v6h-30z" style="stroke-width: 0; fill: rgb(79, 79, 79); fill-opacity: 0.05;"/></g><g class="legendlines"><path class="js-line" d="M5,-2h30" style="fill: none; stroke: rgb(79, 79, 79); stroke-opacity: 1; stroke-width: 1.5px;"/></g><g class="legendsymbols"><g class="legendpoints"/></g></g><rect class="legendtoggle" x="0" y="-9.5" width="97.845703125" height="19" style="fill: rgb(0, 0, 0); fill-opacity: 0;"/></g><g class="traces" transform="translate(0,33.5)" style="opacity: 1;"><text class="legendtext" text-anchor="start" x="40" y="4.680000000000001" style="font-family: Arial; font-size: 12px; fill: rgb(0, 0, 0); fill-opacity: 1; white-space: pre;">Training (Generator)</text><g class="layers" style="opacity: 1;"><g class="legendfill"><path class="js-fill" d="M5,-2h30v6h-30z" style="stroke-width: 0; fill: rgb(119, 226, 177); fill-opacity: 0.05;"/></g><g class="legendlines"><path class="js-line" d="M5,-2h30" style="fill: none; stroke: rgb(119, 226, 177); stroke-opacity: 1; stroke-width: 1.5px;"/></g><g class="legendsymbols"><g class="legendpoints"/></g></g><rect class="legendtoggle" x="0" y="-9.5" width="150.767578125" height="19" style="fill: rgb(0, 0, 0); fill-opacity: 0;"/></g><g class="traces" transform="translate(0,52.5)" style="opacity: 1;"><text class="legendtext" text-anchor="start" x="40" y="4.680000000000001" style="font-family: Arial; font-size: 12px; fill: rgb(0, 0, 0); fill-opacity: 1; white-space: pre;">Prefix, rep. = 1.20</text><g class="layers" style="opacity: 1;"><g class="legendfill"><path class="js-fill" d="M5,-2h30v6h-30z" style="stroke-width: 0; fill: rgb(227, 63, 25); fill-opacity: 0.05;"/></g><g class="legendlines"><path class="js-line" d="M5,-2h30" style="fill: none; stroke: rgb(227, 63, 25); stroke-opacity: 1; stroke-width: 1.5px;"/></g><g class="legendsymbols"><g class="legendpoints"/></g></g><rect class="legendtoggle" x="0" y="-9.5" width="137.876953125" height="19" style="fill: rgb(0, 0, 0); fill-opacity: 0;"/></g><g class="traces" transform="translate(0,71.5)" style="opacity: 1;"><text class="legendtext" text-anchor="start" x="40" y="4.680000000000001" style="font-family: Arial; font-size: 12px; fill: rgb(0, 0, 0); fill-opacity: 1; white-space: pre;">Soft-Prompt, rep. = 1.10</text><g class="layers" style="opacity: 1;"><g class="legendfill"><path class="js-fill" d="M5,-2h30v6h-30z" style="stroke-width: 0; fill: rgb(7, 106, 107); fill-opacity: 0.05;"/></g><g class="legendlines"><path class="js-line" d="M5,-2h30" style="fill: none; stroke: rgb(7, 106, 107); stroke-opacity: 1; stroke-width: 1.5px;"/></g><g class="legendsymbols"><g class="legendpoints"/></g></g><rect class="legendtoggle" x="0" y="-9.5" width="171.22265625" height="19" style="fill: rgb(0, 0, 0); fill-opacity: 0;"/></g></g></g><rect class="scrollbar" rx="20" ry="3" width="0" height="0" style="fill: rgb(128, 139, 164); fill-opacity: 1;" x="0" y="0"/></g><g class="g-gtitle"/><g class="g-polartitle"/></g></svg>