<svg class="main-svg" xmlns="http://www.w3.org/2000/svg" xmlns:xlink="http://www.w3.org/1999/xlink" width="500" height="350" style="" viewBox="0 0 500 350"><rect x="0" y="0" width="500" height="350" style="fill: rgb(255, 255, 255); fill-opacity: 1;"/><defs id="defs-bc92f3"><g class="clips"><clipPath id="clipbc92f3xyplot" class="plotclip"><rect width="340" height="170"/></clipPath><clipPath class="axesclip" id="clipbc92f3x"><rect x="80" y="0" width="340" height="350"/></clipPath><clipPath class="axesclip" id="clipbc92f3y"><rect x="0" y="100" width="500" height="170"/></clipPath><clipPath class="axesclip" id="clipbc92f3xy"><rect x="80" y="100" width="340" height="170"/></clipPath></g><g class="gradients"/><g class="patterns"/></defs><g class="bglayer"/><g class="layer-below"><g class="imagelayer"/><g class="shapelayer"/></g><g class="cartesianlayer"><g class="subplot xy"><g class="layer-subplot"><g class="shapelayer"/><g class="imagelayer"/></g><g class="minor-gridlayer"><g class="x"/><g class="y"/></g><g class="gridlayer"><g class="x"><path class="xgrid crisp" transform="translate(143.46,0)" d="M0,100v170" style="stroke: rgb(238, 238, 238); stroke-opacity: 1; stroke-width: 1px;"/><path class="xgrid crisp" transform="translate(228.07,0)" d="M0,100v170" style="stroke: rgb(238, 238, 238); stroke-opacity: 1; stroke-width: 1px;"/><path class="xgrid crisp" transform="translate(312.69,0)" d="M0,100v170" style="stroke: rgb(238, 238, 238); stroke-opacity: 1; stroke-width: 1px;"/><path class="xgrid crisp" transform="translate(397.3,0)" d="M0,100v170" style="stroke: rgb(238, 238, 238); stroke-opacity: 1; stroke-width: 1px;"/></g><g class="y"><path class="ygrid crisp" transform="translate(0,199.17000000000002)" d="M80,0h340" style="stroke: rgb(238, 238, 238); stroke-opacity: 1; stroke-width: 1px;"/><path class="ygrid crisp" transform="translate(0,128.32999999999998)" d="M80,0h340" style="stroke: rgb(238, 238, 238); stroke-opacity: 1; stroke-width: 1px;"/></g></g><g class="zerolinelayer"><path class="yzl zl crisp" transform="translate(0,270)" d="M80,0h340" style="stroke: rgb(255, 255, 255); stroke-opacity: 1; stroke-width: 2px;"/></g><g class="layer-between"><g class="shapelayer"/><g class="imagelayer"/></g><path class="xlines-below"/><path class="ylines-below"/><g class="overlines-below"/><g class="xaxislayer-below"/><g class="yaxislayer-below"/><g class="overaxes-below"/><g class="overplot"><g class="xy" transform="translate(80,100)" clip-path="url(#clipbc92f3xyplot)"><g class="scatterlayer mlayer"><g class="trace scatter tracef904ef" style="stroke-miterlimit: 2;"><g class="fills"><g><path class="js-fill" d="M340,170L0,170L0,162.92H6.8V147.33H13.6V138.83H20.4V140.25H27.2V157.25H34V151.58H40.8V143.08H47.6V137.42H54.4V153H61.2V145.92H68V140.25H74.8V145.92H81.6V134.58H88.4V148.75H95.2V148.75H102V143.08H108.8V151.58H115.6V130.33H122.4V150.17H129.2V140.25H136V143.08H142.8V133.17H149.6V145.92H156.4V148.75H163.2V137.42H170V150.17H176.8V137.42H183.6V126.08H190.4V160.08H197.2V145.92H204V148.75H210.8V131.75H217.6V138.83H224.4V154.42H231.2V153H238V141.67H244.8V148.75H251.6V151.58H258.4V140.25H265.2V145.92H272V161.5H278.8V157.25H285.6V168.58H292.4V155.83H299.2V161.5H306V158.67H312.8V162.92H319.6V170H326.4V170H333.2V170H340V170" style="fill: rgb(227, 63, 25); fill-opacity: 0.12; stroke-width: 0;"/></g></g><g class="errorbars"/><g class="lines"><path class="js-line" d="M0,162.92H6.8V147.33H13.6V138.83H20.4V140.25H27.2V157.25H34V151.58H40.8V143.08H47.6V137.42H54.4V153H61.2V145.92H68V140.25H74.8V145.92H81.6V134.58H88.4V148.75H95.2V148.75H102V143.08H108.8V151.58H115.6V130.33H122.4V150.17H129.2V140.25H136V143.08H142.8V133.17H149.6V145.92H156.4V148.75H163.2V137.42H170V150.17H176.8V137.42H183.6V126.08H190.4V160.08H197.2V145.92H204V148.75H210.8V131.75H217.6V138.83H224.4V154.42H231.2V153H238V141.67H244.8V148.75H251.6V151.58H258.4V140.25H265.2V145.92H272V161.5H278.8V157.25H285.6V168.58H292.4V155.83H299.2V161.5H306V158.67H312.8V162.92H319.6V170H326.4V170H333.2V170H340V170" style="vector-effect: none; fill: none; stroke: rgb(227, 63, 25); stroke-opacity: 1; stroke-width: 1.5px; opacity: 1;"/></g><g class="points"/><g class="text"/></g><g class="trace scatter trace55e202" style="stroke-miterlimit: 2;"><g class="fills"><g><path class="js-fill" d="M340,170L0,170L0,170H6.8V162.92H13.6V164.33H20.4V157.25H27.2V168.58H34V165.75H40.8V151.58H47.6V148.75H54.4V155.83H61.2V134.58H68V143.08H74.8V145.92H81.6V127.5H88.4V136H95.2V124.67H102V138.83H108.8V131.75H115.6V104.83H122.4V133.17H129.2V104.83H136V100.58H142.8V92.08H149.6V103.42H156.4V121.83H163.2V117.58H170V68H176.8V104.83H183.6V8.5H190.4V164.33H197.2V82.17H204V53.83H210.8V104.83H217.6V96.33H224.4V72.25H231.2V82.17H238V113.33H244.8V119H251.6V134.58H258.4V119H265.2V136H272V140.25H278.8V134.58H285.6V144.5H292.4V153H299.2V154.42H306V162.92H312.8V167.17H319.6V162.92H326.4V164.33H333.2V165.75H340V170" style="fill: rgb(7, 106, 107); fill-opacity: 0.12; stroke-width: 0;"/></g></g><g class="errorbars"/><g class="lines"><path class="js-line" d="M0,170H6.8V162.92H13.6V164.33H20.4V157.25H27.2V168.58H34V165.75H40.8V151.58H47.6V148.75H54.4V155.83H61.2V134.58H68V143.08H74.8V145.92H81.6V127.5H88.4V136H95.2V124.67H102V138.83H108.8V131.75H115.6V104.83H122.4V133.17H129.2V104.83H136V100.58H142.8V92.08H149.6V103.42H156.4V121.83H163.2V117.58H170V68H176.8V104.83H183.6V8.5H190.4V164.33H197.2V82.17H204V53.83H210.8V104.83H217.6V96.33H224.4V72.25H231.2V82.17H238V113.33H244.8V119H251.6V134.58H258.4V119H265.2V136H272V140.25H278.8V134.58H285.6V144.5H292.4V153H299.2V154.42H306V162.92H312.8V167.17H319.6V162.92H326.4V164.33H333.2V165.75H340V170" style="vector-effect: none; fill: none; stroke: rgb(7, 106, 107); stroke-opacity: 1; stroke-width: 1.5px; opacity: 1;"/></g><g class="points"/><g class="text"/></g></g></g></g><g class="zerolinelayer-above"/><path class="xlines-above crisp" d="M79.2,270.4H420" style="fill: none; stroke-width: 0.8px; stroke: rgb(0, 0, 0); stroke-opacity: 1;"/><path class="ylines-above crisp" d="M79.6,100V270" style="fill: none; stroke-width: 0.8px; stroke: rgb(0, 0, 0); stroke-opacity: 1;"/><g class="overlines-above"/><g class="xaxislayer-above"><g class="xtick"><text text-anchor="middle" x="0" y="285.2" transform="translate(143.46,0)" style="font-family: Arial; font-size: 12px; fill: rgb(0, 0, 0); fill-opacity: 1; white-space: pre;">0.2</text></g><g class="xtick"><text text-anchor="middle" x="0" y="285.2" style="font-family: Arial; font-size: 12px; fill: rgb(0, 0, 0); fill-opacity: 1; white-space: pre;" transform="translate(228.07,0)">0.4</text></g><g class="xtick"><text text-anchor="middle" x="0" y="285.2" style="font-family: Arial; font-size: 12px; fill: rgb(0, 0, 0); fill-opacity: 1; white-space: pre;" transform="translate(312.69,0)">0.6</text></g><g class="xtick"><text text-anchor="middle" x="0" y="285.2" style="font-family: Arial; font-size: 12px; fill: rgb(0, 0, 0); fill-opacity: 1; white-space: pre;" transform="translate(397.3,0)">0.8</text></g></g><g class="yaxislayer-above"><g class="ytick"><text text-anchor="end" x="76.8" y="4.199999999999999" transform="translate(0,270)" style="font-family: Arial; font-size: 12px; fill: rgb(0, 0, 0); fill-opacity: 1; white-space: pre;">0</text></g><g class="ytick"><text text-anchor="end" x="76.8" y="4.199999999999999" style="font-family: Arial; font-size: 12px; fill: rgb(0, 0, 0); fill-opacity: 1; white-space: pre;" transform="translate(0,199.17000000000002)">50</text></g><g class="ytick"><text text-anchor="end" x="76.8" y="4.199999999999999" style="font-family: Arial; font-size: 12px; fill: rgb(0, 0, 0); fill-opacity: 1; white-space: pre;" transform="translate(0,128.32999999999998)">100</text></g></g><g class="overaxes-above"/></g></g><g class="polarlayer"/><g class="smithlayer"/><g class="ternarylayer"/><g class="geolayer"/><g class="funnelarealayer"/><g class="pielayer"/><g class="iciclelayer"/><g class="treemaplayer"/><g class="sunburstlayer"/><g class="glimages"/><defs id="topdefs-bc92f3"><g class="clips"/><clipPath id="legendbc92f3"><rect width="315" height="29" x="0" y="0"/></clipPath></defs><g class="layer-above"><g class="imagelayer"/><g class="shapelayer"/></g><g class="infolayer"><g class="legend" pointer-events="all" transform="translate(92.5,67.6)"><rect class="bg" shape-rendering="crispEdges" style="stroke: rgb(68, 68, 68); stroke-opacity: 1; fill: rgb(255, 255, 255); fill-opacity: 1; stroke-width: 0px;" width="315" height="29" x="0" y="0"/><g class="scrollbox" transform="" clip-path="url(#legendbc92f3)"><g class="groups"><g class="traces" transform="translate(0,14.5)" style="opacity: 1;"><text class="legendtext" text-anchor="start" x="40" y="4.680000000000001" style="font-family: Arial; font-size: 12px; fill: rgb(0, 0, 0); fill-opacity: 1; white-space: pre;">Prefix, rep. = 1.20</text><g class="layers"><g class="legendfill"><path class="js-fill" d="M5,-2h30v6h-30z" style="stroke-width: 0; fill: rgb(227, 63, 25); fill-opacity: 0.12;"/></g><g class="legendlines"><path class="js-line" d="M5,-2h30" style="fill: none; stroke: rgb(227, 63, 25); stroke-opacity: 1; stroke-width: 1.5px;"/></g><g class="legendsymbols"><g class="legendpoints"/></g></g><rect class="legendtoggle" x="0" y="-9.5" width="137.876953125" height="19" style="fill: rgb(0, 0, 0); fill-opacity: 0;"/></g><g class="traces" transform="translate(140.376953125,14.5)" style="opacity: 1;"><text class="legendtext" text-anchor="start" x="40" y="4.680000000000001" style="font-family: Arial; font-size: 12px; fill: rgb(0, 0, 0); fill-opacity: 1; white-space: pre;">Soft-Prompt, rep. = 1.10</text><g class="layers"><g class="legendfill"><path class="js-fill" d="M5,-2h30v6h-30z" style="stroke-width: 0; fill: rgb(7, 106, 107); fill-opacity: 0.12;"/></g><g class="legendlines"><path class="js-line" d="M5,-2h30" style="fill: none; stroke: rgb(7, 106, 107); stroke-opacity: 1; stroke-width: 1.5px;"/></g><g class="legendsymbols"><g class="legendpoints"/></g></g><rect class="legendtoggle" x="0" y="-9.5" width="171.22265625" height="19" style="fill: rgb(0, 0, 0); fill-opacity: 0;"/></g></g></g><rect class="scrollbar" rx="20" ry="3" width="0" height="0" style="fill: rgb(128, 139, 164); fill-opacity: 1;" x="0" y="0"/></g><g class="g-gtitle"/><g class="g-xtitle"><text class="xtitle" x="250" y="311.90019531250005" text-anchor="middle" style="opacity: 1; font-family: Arial; font-size: 13px; fill: rgb(0, 0, 0); fill-opacity: 1; white-space: pre;">Min d_norm to R</text></g><g class="g-ytitle"><text class="ytitle" transform="rotate(-90,37.61855468750001,185)" x="37.61855468750001" y="185" text-anchor="middle" style="opacity: 1; font-family: Arial; font-size: 13px; fill: rgb(0, 0, 0); fill-opacity: 1; white-space: pre;">Count</text></g></g></svg>