<svg class="main-svg" xmlns="http://www.w3.org/2000/svg" xmlns:xlink="http://www.w3.org/1999/xlink" width="500" height="350" style="" viewBox="0 0 500 350"><rect x="0" y="0" width="500" height="350" style="fill: rgb(255, 255, 255); fill-opacity: 1;"/><defs id="defs-5346fb"><g class="clips"><clipPath id="clip5346fbxyplot" class="plotclip"><rect width="340" height="170"/></clipPath><clipPath class="axesclip" id="clip5346fbx"><rect x="80" y="0" width="340" height="350"/></clipPath><clipPath class="axesclip" id="clip5346fby"><rect x="0" y="100" width="500" height="170"/></clipPath><clipPath class="axesclip" id="clip5346fbxy"><rect x="80" y="100" width="340" height="170"/></clipPath></g><g class="gradients"/><g class="patterns"/></defs><g class="bglayer"/><g class="layer-below"><g class="imagelayer"/><g class="shapelayer"/></g><g class="cartesianlayer"><g class="subplot xy"><g class="layer-subplot"><g class="shapelayer"/><g class="imagelayer"/></g><g class="minor-gridlayer"><g class="x"/><g class="y"/></g><g class="gridlayer"><g class="x"><path class="xgrid crisp" transform="translate(136.67000000000002,0)" d="M0,100v170" style="stroke: rgb(238, 238, 238); stroke-opacity: 1; stroke-width: 1px;"/><path class="xgrid crisp" transform="translate(250,0)" d="M0,100v170" style="stroke: rgb(238, 238, 238); stroke-opacity: 1; stroke-width: 1px;"/><path class="xgrid crisp" transform="translate(363.33,0)" d="M0,100v170" style="stroke: rgb(238, 238, 238); stroke-opacity: 1; stroke-width: 1px;"/></g><g class="y"><path class="ygrid crisp" transform="translate(0,173.45)" d="M80,0h340" style="stroke: rgb(238, 238, 238); stroke-opacity: 1; stroke-width: 1px;"/></g></g><g class="zerolinelayer"><path class="yzl zl crisp" transform="translate(0,252.41)" d="M80,0h340" style="stroke: rgb(255, 255, 255); stroke-opacity: 1; stroke-width: 2px;"/></g><g class="layer-between"><g class="shapelayer"/><g class="imagelayer"/></g><path class="xlines-below"/><path class="ylines-below"/><g class="overlines-below"/><g class="xaxislayer-below"/><g class="yaxislayer-below"/><g class="overaxes-below"/><g class="overplot"><g class="xy" transform="translate(80,100)" clip-path="url(#clip5346fbxyplot)"><g class="violinlayer mlayer"><g class="trace violins" style="opacity: 0.8;"><path class="violin" d="M56.77,158.73Q56.84,157.07 56.91,156.24C56.98,155.41 57.07,154.58 57.21,153.76C57.36,152.93 57.52,152.1 57.78,151.28C58.04,150.44 58.36,149.61 58.77,148.8C59.2,147.95 59.72,147.12 60.33,146.32C60.98,145.46 61.74,144.64 62.57,143.84C63.46,142.98 64.47,142.16 65.5,141.35C66.59,140.5 67.78,139.69 68.95,138.87C70.15,138.03 71.41,137.22 72.61,136.39C73.79,135.57 74.99,134.76 76.07,133.91C77.09,133.11 78.1,132.3 78.93,131.43C79.69,130.64 80.41,129.82 80.92,128.95C81.38,128.16 81.74,127.31 81.91,126.47C82.08,125.66 82.06,124.8 81.96,123.98C81.86,123.15 81.58,122.32 81.29,121.5C81,120.66 80.59,119.84 80.21,119.02C79.83,118.19 79.4,117.37 79.03,116.54C78.67,115.72 78.3,114.9 78.02,114.06C77.75,113.24 77.52,112.41 77.38,111.58C77.24,110.76 77.17,109.92 77.17,109.09C77.17,108.26 77.24,107.43 77.35,106.61C77.46,105.78 77.65,104.95 77.85,104.13C78.05,103.3 78.3,102.47 78.54,101.65C78.79,100.82 79.06,100 79.32,99.17C79.58,98.34 79.84,97.52 80.09,96.69C80.34,95.86 80.58,95.04 80.82,94.21C81.06,93.38 81.29,92.55 81.52,91.72C81.75,90.89 81.98,90.07 82.21,89.24C82.44,88.41 82.66,87.59 82.88,86.76C83.09,85.93 83.31,85.11 83.5,84.28C83.69,83.46 83.87,82.63 84.01,81.8C84.15,80.98 84.26,80.15 84.33,79.32C84.4,78.49 84.43,77.67 84.43,76.84C84.43,76.01 84.38,75.18 84.3,74.35C84.22,73.52 84.09,72.69 83.94,71.87C83.79,71.04 83.6,70.22 83.41,69.39C83.22,68.56 83,67.74 82.8,66.91C82.6,66.08 82.38,65.26 82.21,64.43C82.04,63.61 81.88,62.78 81.78,61.95C81.68,61.12 81.61,60.29 81.6,59.46C81.59,58.63 81.63,57.81 81.7,56.98C81.77,56.15 81.9,55.33 82,54.5C82.1,53.67 82.24,52.85 82.28,52.02C82.32,51.19 82.36,50.36 82.24,49.54C82.12,48.71 81.91,47.86 81.55,47.06C81.17,46.2 80.62,45.37 79.98,44.58C79.28,43.71 78.4,42.89 77.49,42.09C76.51,41.23 75.38,40.42 74.26,39.61C73.1,38.77 71.84,37.96 70.64,37.13C69.44,36.3 68.2,35.49 67.06,34.65C65.96,33.84 64.87,33.02 63.9,32.17C62.99,31.37 62.12,30.55 61.37,29.69C60.67,28.89 60.05,28.05 59.53,27.2C59.04,26.39 58.63,25.56 58.3,24.72C57.98,23.91 57.75,23.07 57.55,22.24C57.35,21.42 57.22,20.59 57.11,19.76C57,18.94 56.94,18.11 56.88,17.28C56.82,16.45 56.79,15.63 56.76,14.8Q56.73,13.97 56.71,12.32L56.63,12.32Q56.6,13.97 56.57,14.8C56.54,15.63 56.51,16.45 56.45,17.28C56.39,18.11 56.33,18.94 56.22,19.76C56.11,20.59 55.99,21.42 55.79,22.24C55.59,23.07 55.35,23.91 55.03,24.72C54.7,25.56 54.29,26.39 53.8,27.2C53.28,28.05 52.66,28.89 51.96,29.69C51.21,30.55 50.34,31.37 49.43,32.17C48.46,33.02 47.37,33.84 46.27,34.65C45.13,35.49 43.9,36.31 42.7,37.13C41.5,37.96 40.24,38.77 39.08,39.61C37.96,40.42 36.82,41.23 35.84,42.09C34.93,42.89 34.05,43.71 33.35,44.58C32.71,45.37 32.16,46.2 31.78,47.06C31.42,47.86 31.21,48.71 31.09,49.54C30.97,50.36 31.01,51.19 31.05,52.02C31.09,52.85 31.23,53.67 31.33,54.5C31.43,55.33 31.56,56.15 31.63,56.98C31.7,57.81 31.74,58.63 31.73,59.46C31.72,60.29 31.66,61.12 31.56,61.95C31.46,62.78 31.29,63.61 31.12,64.43C30.95,65.26 30.73,66.08 30.53,66.91C30.33,67.74 30.11,68.56 29.92,69.39C29.73,70.22 29.54,71.04 29.39,71.87C29.24,72.69 29.12,73.52 29.04,74.35C28.96,75.18 28.91,76.01 28.9,76.84C28.89,77.67 28.93,78.49 29,79.32C29.07,80.15 29.19,80.98 29.33,81.8C29.47,82.63 29.65,83.46 29.84,84.28C30.03,85.11 30.25,85.93 30.46,86.76C30.68,87.59 30.91,88.41 31.13,89.24C31.36,90.07 31.58,90.89 31.81,91.72C32.04,92.55 32.27,93.38 32.51,94.21C32.75,95.04 32.99,95.86 33.24,96.69C33.49,97.52 33.76,98.34 34.02,99.17C34.28,100 34.55,100.82 34.79,101.65C35.03,102.47 35.28,103.3 35.48,104.13C35.68,104.95 35.86,105.78 35.98,106.61C36.09,107.43 36.17,108.26 36.17,109.09C36.17,109.92 36.09,110.76 35.95,111.58C35.81,112.41 35.58,113.24 35.31,114.06C35.03,114.9 34.67,115.72 34.31,116.54C33.94,117.37 33.51,118.19 33.13,119.02C32.75,119.84 32.34,120.66 32.04,121.5C31.75,122.32 31.47,123.15 31.37,123.98C31.27,124.8 31.26,125.66 31.43,126.47C31.6,127.31 31.95,128.16 32.41,128.95C32.91,129.82 33.64,130.64 34.4,131.43C35.23,132.3 36.24,133.11 37.26,133.91C38.34,134.76 39.54,135.57 40.72,136.39C41.92,137.22 43.18,138.03 44.38,138.87C45.55,139.69 46.74,140.5 47.83,141.35C48.86,142.16 49.87,142.98 50.76,143.84C51.59,144.64 52.35,145.46 53,146.32C53.61,147.12 54.14,147.95 54.57,148.8C54.98,149.61 55.29,150.44 55.55,151.28C55.8,152.1 55.97,152.93 56.12,153.76C56.26,154.58 56.35,155.41 56.42,156.24Q56.49,157.07 56.56,158.73Z" style="vector-effect: none; stroke-width: 2px; stroke: rgb(79, 79, 79); stroke-opacity: 1; fill: rgb(79, 79, 79); fill-opacity: 0.45;"/><path class="box" d="M49.73,84.04H63.61M49.73,113.19H63.61V61.16H49.73ZM56.67,113.19V143.68M56.67,61.16V27.36" style="vector-effect: non-scaling-stroke; stroke-width: 2px; stroke: rgb(79, 79, 79); stroke-opacity: 1; fill: rgb(79, 79, 79); fill-opacity: 0.45;"/><path class="mean" d="M49.73,86.49H63.61" style="fill: none; vector-effect: non-scaling-stroke; stroke-width: 2px; stroke-dasharray: 4px, 2px; stroke: rgb(79, 79, 79); stroke-opacity: 1;"/><g class="points"/></g><g class="trace violins" style="opacity: 0.8;"><path class="violin" d="M170.22,161.5Q170.37,159.55 170.52,158.58C170.67,157.6 170.83,156.62 171.1,155.66C171.37,154.68 171.71,153.69 172.16,152.74C172.63,151.74 173.21,150.76 173.9,149.82C174.63,148.81 175.51,147.84 176.47,146.9C177.5,145.89 178.69,144.93 179.91,143.98C181.2,142.98 182.62,142.02 184.01,141.06C185.43,140.08 186.93,139.13 188.33,138.14C189.69,137.18 191.09,136.23 192.3,135.22C193.42,134.28 194.53,133.32 195.37,132.29C196.13,131.36 196.81,130.38 197.21,129.37C197.58,128.43 197.76,127.42 197.77,126.45C197.78,125.48 197.55,124.49 197.29,123.53C197.03,122.54 196.59,121.58 196.19,120.61C195.79,119.63 195.3,118.67 194.89,117.69C194.48,116.72 194.07,115.75 193.73,114.77C193.4,113.8 193.1,112.83 192.89,111.85C192.68,110.88 192.54,109.91 192.46,108.93C192.38,107.96 192.36,106.98 192.38,106.01C192.4,105.04 192.49,104.06 192.59,103.09C192.69,102.11 192.85,101.14 193,100.17C193.16,99.2 193.33,98.22 193.52,97.25C193.71,96.28 193.91,95.3 194.12,94.33C194.33,93.36 194.55,92.38 194.76,91.41C194.97,90.44 195.19,89.46 195.39,88.49C195.59,87.52 195.8,86.55 195.95,85.57C196.1,84.6 196.24,83.62 196.29,82.65C196.34,81.68 196.36,80.7 196.28,79.73C196.2,78.75 196.05,77.77 195.83,76.8C195.61,75.82 195.29,74.85 194.96,73.88C194.63,72.9 194.22,71.93 193.84,70.96C193.46,69.99 193.05,69.02 192.7,68.04C192.36,67.07 192.02,66.1 191.77,65.12C191.52,64.15 191.32,63.18 191.18,62.2C191.04,61.23 190.99,60.25 190.92,59.28C190.86,58.31 190.86,57.33 190.79,56.36C190.72,55.39 190.68,54.41 190.51,53.44C190.34,52.46 190.12,51.48 189.77,50.52C189.41,49.53 188.94,48.55 188.38,47.6C187.79,46.6 187.06,45.63 186.3,44.68C185.5,43.68 184.59,42.72 183.69,41.76C182.77,40.78 181.76,39.82 180.81,38.84C179.86,37.87 178.89,36.91 178,35.92C177.13,34.96 176.28,33.99 175.53,33C174.81,32.05 174.14,31.07 173.57,30.08C173.02,29.13 172.54,28.15 172.14,27.16C171.75,26.2 171.45,25.22 171.2,24.24C170.95,23.27 170.77,22.29 170.62,21.31C170.47,20.34 170.38,19.36 170.3,18.39Q170.22,17.42 170.13,15.47L169.87,15.47Q169.78,17.42 169.7,18.39C169.62,19.36 169.53,20.34 169.38,21.31C169.23,22.29 169.05,23.27 168.8,24.24C168.55,25.22 168.25,26.2 167.86,27.16C167.46,28.15 166.98,29.13 166.43,30.08C165.86,31.07 165.19,32.05 164.47,33C163.72,33.99 162.87,34.96 162,35.92C161.11,36.91 160.14,37.87 159.19,38.84C158.24,39.82 157.23,40.78 156.31,41.76C155.41,42.72 154.5,43.68 153.7,44.68C152.94,45.63 152.21,46.6 151.62,47.6C151.06,48.55 150.59,49.53 150.23,50.52C149.88,51.48 149.66,52.46 149.49,53.44C149.32,54.41 149.28,55.39 149.21,56.36C149.14,57.33 149.14,58.31 149.08,59.28C149.01,60.25 148.96,61.23 148.82,62.2C148.68,63.18 148.48,64.15 148.23,65.12C147.98,66.1 147.64,67.07 147.3,68.04C146.95,69.02 146.54,69.99 146.16,70.96C145.78,71.93 145.37,72.9 145.04,73.88C144.71,74.85 144.39,75.82 144.17,76.8C143.95,77.77 143.8,78.75 143.72,79.73C143.64,80.7 143.66,81.68 143.71,82.65C143.76,83.62 143.9,84.6 144.05,85.57C144.2,86.55 144.41,87.52 144.61,88.49C144.81,89.46 145.03,90.44 145.24,91.41C145.45,92.38 145.67,93.36 145.88,94.33C146.09,95.3 146.29,96.28 146.48,97.25C146.67,98.22 146.84,99.2 147,100.17C147.15,101.14 147.31,102.11 147.41,103.09C147.51,104.06 147.6,105.04 147.62,106.01C147.64,106.98 147.62,107.96 147.54,108.93C147.46,109.91 147.32,110.88 147.11,111.85C146.9,112.83 146.6,113.8 146.27,114.77C145.93,115.75 145.52,116.72 145.11,117.69C144.7,118.67 144.21,119.63 143.81,120.61C143.41,121.58 142.97,122.54 142.71,123.53C142.45,124.49 142.22,125.48 142.23,126.45C142.24,127.42 142.42,128.43 142.79,129.37C143.19,130.38 143.87,131.36 144.63,132.29C145.47,133.32 146.58,134.28 147.7,135.22C148.91,136.23 150.31,137.18 151.67,138.14C153.07,139.13 154.57,140.08 155.99,141.06C157.38,142.02 158.8,142.98 160.09,143.98C161.31,144.93 162.5,145.89 163.53,146.9C164.49,147.84 165.37,148.81 166.1,149.82C166.79,150.76 167.37,151.74 167.84,152.74C168.29,153.69 168.63,154.68 168.9,155.66C169.17,156.62 169.33,157.6 169.48,158.58Q169.63,159.55 169.78,161.5Z" style="vector-effect: none; stroke-width: 2px; stroke: rgb(119, 226, 177); stroke-opacity: 1; fill: rgb(119, 226, 177); fill-opacity: 0.45;"/><path class="box" d="M163.06,91.83H176.94M163.06,120.82H176.94V68.99H163.06ZM170,120.82V143.68M170,68.99V33.29" style="vector-effect: non-scaling-stroke; stroke-width: 2px; stroke: rgb(119, 226, 177); stroke-opacity: 1; fill: rgb(119, 226, 177); fill-opacity: 0.45;"/><path class="mean" d="M163.06,92.32H176.94" style="fill: none; vector-effect: non-scaling-stroke; stroke-width: 2px; stroke-dasharray: 4px, 2px; stroke: rgb(119, 226, 177); stroke-opacity: 1;"/><g class="points"/></g><g class="trace violins" style="opacity: 0.8;"><path class="violin" d="M283.5,155.48Q283.61,153.39 283.69,152.35C283.77,151.31 283.87,150.26 284,149.22C284.14,148.17 284.3,147.13 284.5,146.09C284.7,145.05 284.93,144.01 285.19,142.97C285.45,141.92 285.76,140.88 286.08,139.84C286.4,138.79 286.76,137.75 287.11,136.71C287.46,135.67 287.83,134.63 288.18,133.59C288.53,132.55 288.88,131.51 289.2,130.46C289.52,129.42 289.82,128.38 290.1,127.33C290.38,126.29 290.63,125.24 290.88,124.2C291.13,123.16 291.35,122.12 291.59,121.08C291.83,120.04 292.06,118.99 292.31,117.95C292.57,116.9 292.83,115.86 293.12,114.82C293.41,113.78 293.71,112.74 294.03,111.7C294.35,110.66 294.68,109.61 295.02,108.57C295.36,107.53 295.7,106.48 296.05,105.44C296.4,104.4 296.75,103.35 297.1,102.31C297.46,101.27 297.81,100.23 298.18,99.19C298.56,98.15 298.93,97.1 299.35,96.06C299.77,95.01 300.22,93.97 300.7,92.93C301.19,91.88 301.72,90.84 302.28,89.81C302.85,88.76 303.47,87.72 304.09,86.68C304.72,85.63 305.39,84.59 306.03,83.55C306.67,82.51 307.35,81.47 307.94,80.42C308.52,79.39 309.1,78.36 309.56,77.3C310,76.27 310.4,75.23 310.66,74.17C310.91,73.14 311.06,72.08 311.1,71.04C311.14,70 311.05,68.96 310.91,67.92C310.77,66.87 310.51,65.83 310.28,64.79C310.05,63.74 309.77,62.71 309.55,61.66C309.33,60.62 309.12,59.58 308.97,58.53C308.82,57.49 308.74,56.45 308.66,55.41C308.58,54.37 308.57,53.32 308.47,52.28C308.37,51.23 308.29,50.18 308.05,49.15C307.81,48.1 307.49,47.04 307.02,46.03C306.52,44.96 305.85,43.91 305.1,42.9C304.29,41.82 303.3,40.79 302.29,39.77C301.23,38.7 300.02,37.67 298.85,36.64C297.66,35.59 296.4,34.57 295.22,33.52C294.06,32.49 292.89,31.46 291.83,30.39C290.82,29.37 289.85,28.33 289.01,27.26C288.21,26.24 287.48,25.21 286.87,24.14C286.29,23.12 285.81,22.07 285.41,21.01C285.02,19.98 284.72,18.93 284.47,17.88C284.22,16.84 284.06,15.8 283.92,14.75C283.78,13.71 283.7,12.67 283.62,11.63Q283.54,10.59 283.46,8.5L283.21,8.5Q283.13,10.59 283.05,11.63C282.97,12.67 282.89,13.71 282.75,14.75C282.61,15.8 282.45,16.84 282.2,17.88C281.95,18.93 281.65,19.98 281.26,21.01C280.86,22.07 280.37,23.12 279.79,24.14C279.18,25.21 278.46,26.25 277.66,27.26C276.82,28.33 275.85,29.37 274.84,30.39C273.78,31.46 272.61,32.49 271.45,33.52C270.27,34.57 269,35.59 267.81,36.64C266.64,37.67 265.43,38.7 264.37,39.77C263.36,40.79 262.37,41.82 261.57,42.9C260.82,43.91 260.15,44.96 259.65,46.03C259.18,47.04 258.86,48.1 258.62,49.15C258.38,50.18 258.3,51.23 258.2,52.28C258.1,53.32 258.09,54.37 258.01,55.41C257.93,56.45 257.85,57.49 257.7,58.53C257.55,59.58 257.34,60.62 257.12,61.66C256.9,62.71 256.61,63.74 256.38,64.79C256.15,65.83 255.89,66.87 255.76,67.92C255.63,68.96 255.53,70 255.57,71.04C255.61,72.08 255.76,73.14 256.01,74.17C256.27,75.23 256.67,76.27 257.11,77.3C257.57,78.36 258.15,79.39 258.73,80.42C259.32,81.47 259.99,82.51 260.63,83.55C261.27,84.6 261.95,85.63 262.58,86.68C263.2,87.72 263.82,88.76 264.39,89.81C264.95,90.84 265.48,91.88 265.97,92.93C266.45,93.97 266.9,95.01 267.32,96.06C267.74,97.1 268.11,98.15 268.49,99.19C268.86,100.23 269.22,101.27 269.57,102.31C269.92,103.35 270.26,104.4 270.61,105.44C270.95,106.48 271.3,107.53 271.64,108.57C271.98,109.61 272.32,110.66 272.64,111.7C272.96,112.74 273.26,113.78 273.55,114.82C273.83,115.86 274.1,116.91 274.35,117.95C274.6,118.99 274.83,120.04 275.07,121.08C275.31,122.12 275.53,123.16 275.78,124.2C276.03,125.24 276.28,126.29 276.56,127.33C276.84,128.38 277.15,129.42 277.47,130.46C277.79,131.51 278.14,132.55 278.49,133.59C278.84,134.63 279.21,135.67 279.56,136.71C279.91,137.75 280.26,138.79 280.58,139.84C280.9,140.88 281.2,141.92 281.47,142.97C281.73,144.01 281.97,145.05 282.17,146.09C282.37,147.13 282.52,148.17 282.66,149.22C282.79,150.26 282.9,151.31 282.98,152.35Q283.06,153.39 283.16,155.48Z" style="vector-effect: none; stroke-width: 2px; stroke: rgb(132, 154, 234); stroke-opacity: 1; fill: rgb(132, 154, 234); fill-opacity: 0.45;"/><path class="box" d="M276.39,71.82H290.27M276.39,91.23H290.27V51.92H276.39ZM283.33,91.23V136.61M283.33,51.92V27.36" style="vector-effect: non-scaling-stroke; stroke-width: 2px; stroke: rgb(132, 154, 234); stroke-opacity: 1; fill: rgb(132, 154, 234); fill-opacity: 0.45;"/><path class="mean" d="M276.39,74.01H290.27" style="fill: none; vector-effect: non-scaling-stroke; stroke-width: 2px; stroke-dasharray: 4px, 2px; stroke: rgb(132, 154, 234); stroke-opacity: 1;"/><g class="points"/></g></g></g></g><g class="zerolinelayer-above"/><path class="xlines-above crisp" d="M79.2,270.4H420" style="fill: none; stroke-width: 0.8px; stroke: rgb(0, 0, 0); stroke-opacity: 1;"/><path class="ylines-above crisp" d="M79.6,100V270" style="fill: none; stroke-width: 0.8px; stroke: rgb(0, 0, 0); stroke-opacity: 1;"/><g class="overlines-above"/><g class="xaxislayer-above"><g class="xtick"><text text-anchor="middle" x="0" y="285.2" transform="translate(136.67000000000002,0)" style="font-family: Arial; font-size: 12px; fill: rgb(0, 0, 0); fill-opacity: 1; white-space: pre;">R (all real)</text></g><g class="xtick"><text text-anchor="middle" x="0" y="285.2" transform="translate(250,0)" style="font-family: Arial; font-size: 12px; fill: rgb(0, 0, 0); fill-opacity: 1; white-space: pre;">Training (Generator)</text></g><g class="xtick"><text text-anchor="middle" x="0" y="285.2" transform="translate(363.33,0)" style="font-family: Arial; font-size: 12px; fill: rgb(0, 0, 0); fill-opacity: 1; white-space: pre;">Training (Classifier)</text></g></g><g class="yaxislayer-above"><g class="ytick"><text text-anchor="end" x="76.8" y="4.199999999999999" transform="translate(0,252.41)" style="font-family: Arial; font-size: 12px; fill: rgb(0, 0, 0); fill-opacity: 1; white-space: pre;">0</text></g><g class="ytick"><text text-anchor="end" x="76.8" y="4.199999999999999" style="font-family: Arial; font-size: 12px; fill: rgb(0, 0, 0); fill-opacity: 1; white-space: pre;" transform="translate(0,173.45)">0.5</text></g></g><g class="overaxes-above"/></g></g><g class="polarlayer"/><g class="smithlayer"/><g class="ternarylayer"/><g class="geolayer"/><g class="funnelarealayer"/><g class="pielayer"/><g class="iciclelayer"/><g class="treemaplayer"/><g class="sunburstlayer"/><g class="glimages"/><defs id="topdefs-5346fb"><g class="clips"/><clipPath id="legend5346fb"><rect width="307" height="48" x="0" y="0"/></clipPath></defs><g class="layer-above"><g class="imagelayer"/><g class="shapelayer"/></g><g class="infolayer"><g class="legend" pointer-events="all" transform="translate(96.5,48.599999999999994)"><rect class="bg" shape-rendering="crispEdges" style="stroke: rgb(68, 68, 68); stroke-opacity: 1; fill: rgb(255, 255, 255); fill-opacity: 1; stroke-width: 0px;" width="307" height="48" x="0" y="0"/><g class="scrollbox" transform="" clip-path="url(#legend5346fb)"><g class="groups"><g class="traces" transform="translate(0,14.5)" style="opacity: 1;"><text class="legendtext" text-anchor="start" x="40" y="4.680000000000001" style="font-family: Arial; font-size: 12px; fill: rgb(0, 0, 0); fill-opacity: 1; white-space: pre;">R (all real)</text><g class="layers" style="opacity: 0.8;"><g class="legendfill"/><g class="legendlines"/><g class="legendsymbols"><g class="legendpoints"><path class="legendbox" d="M6,6H-6V-6H6Z" transform="translate(20,0)" style="stroke-width: 2px; fill: rgb(79, 79, 79); fill-opacity: 0.45; stroke: rgb(79, 79, 79); stroke-opacity: 1;"/></g></g></g><rect class="legendtoggle" x="0" y="-9.5" width="97.845703125" height="19" style="fill: rgb(0, 0, 0); fill-opacity: 0;"/></g><g class="traces" transform="translate(153.267578125,14.5)" style="opacity: 1;"><text class="legendtext" text-anchor="start" x="40" y="4.680000000000001" style="font-family: Arial; font-size: 12px; fill: rgb(0, 0, 0); fill-opacity: 1; white-space: pre;">Training (Generator)</text><g class="layers" style="opacity: 0.8;"><g class="legendfill"/><g class="legendlines"/><g class="legendsymbols"><g class="legendpoints"><path class="legendbox" d="M6,6H-6V-6H6Z" transform="translate(20,0)" style="stroke-width: 2px; fill: rgb(119, 226, 177); fill-opacity: 0.45; stroke: rgb(119, 226, 177); stroke-opacity: 1;"/></g></g></g><rect class="legendtoggle" x="0" y="-9.5" width="150.767578125" height="19" style="fill: rgb(0, 0, 0); fill-opacity: 0;"/></g><g class="traces" transform="translate(0,33.5)" style="opacity: 1;"><text class="legendtext" text-anchor="start" x="40" y="4.680000000000001" style="font-family: Arial; font-size: 12px; fill: rgb(0, 0, 0); fill-opacity: 1; white-space: pre;">Training (Classifier)</text><g class="layers" style="opacity: 0.8;"><g class="legendfill"/><g class="legendlines"/><g class="legendsymbols"><g class="legendpoints"><path class="legendbox" d="M6,6H-6V-6H6Z" transform="translate(20,0)" style="stroke-width: 2px; fill: rgb(132, 154, 234); fill-opacity: 0.45; stroke: rgb(132, 154, 234); stroke-opacity: 1;"/></g></g></g><rect class="legendtoggle" x="0" y="-9.5" width="146.080078125" height="19" style="fill: rgb(0, 0, 0); fill-opacity: 0;"/></g></g></g><rect class="scrollbar" rx="20" ry="3" width="0" height="0" style="fill: rgb(128, 139, 164); fill-opacity: 1;" x="0" y="0"/></g><g class="g-gtitle"/><g class="g-xtitle"/><g class="g-ytitle"><text class="ytitle" transform="rotate(-90,40.96230468750001,185)" x="40.96230468750001" y="185" text-anchor="middle" style="opacity: 1; font-family: Arial; font-size: 13px; fill: rgb(0, 0, 0); fill-opacity: 1; white-space: pre;">d_kNN (k=10)</text></g></g></svg>