<svg class="main-svg" xmlns="http://www.w3.org/2000/svg" xmlns:xlink="http://www.w3.org/1999/xlink" width="500" height="350" style="" viewBox="0 0 500 350"><rect x="0" y="0" width="500" height="350" style="fill: rgb(255, 255, 255); fill-opacity: 1;"/><defs id="defs-6b790e"><g class="clips"><clipPath id="clip6b790exyplot" class="plotclip"><rect width="340" height="170"/></clipPath><clipPath class="axesclip" id="clip6b790ex"><rect x="80" y="0" width="340" height="350"/></clipPath><clipPath class="axesclip" id="clip6b790ey"><rect x="0" y="100" width="500" height="170"/></clipPath><clipPath class="axesclip" id="clip6b790exy"><rect x="80" y="100" width="340" height="170"/></clipPath></g><g class="gradients"/><g class="patterns"/></defs><g class="bglayer"/><g class="layer-below"><g class="imagelayer"/><g class="shapelayer"/></g><g class="cartesianlayer"><g class="subplot xy"><g class="layer-subplot"><g class="shapelayer"/><g class="imagelayer"/></g><g class="minor-gridlayer"><g class="x"/><g class="y"/></g><g class="gridlayer"><g class="x"><path class="xgrid crisp" transform="translate(203.06,0)" d="M0,100v170" style="stroke: rgb(238, 238, 238); stroke-opacity: 1; stroke-width: 1px;"/><path class="xgrid crisp" transform="translate(329.93,0)" d="M0,100v170" style="stroke: rgb(238, 238, 238); stroke-opacity: 1; stroke-width: 1px;"/></g><g class="y"><path class="ygrid crisp" transform="translate(0,221.20999999999998)" d="M80,0h340" style="stroke: rgb(238, 238, 238); stroke-opacity: 1; stroke-width: 1px;"/><path class="ygrid crisp" transform="translate(0,172.42000000000002)" d="M80,0h340" style="stroke: rgb(238, 238, 238); stroke-opacity: 1; stroke-width: 1px;"/><path class="ygrid crisp" transform="translate(0,123.63)" d="M80,0h340" style="stroke: rgb(238, 238, 238); stroke-opacity: 1; stroke-width: 1px;"/></g></g><g class="zerolinelayer"><path class="yzl zl crisp" transform="translate(0,270)" d="M80,0h340" style="stroke: rgb(255, 255, 255); stroke-opacity: 1; stroke-width: 2px;"/></g><g class="layer-between"><g class="shapelayer"/><g class="imagelayer"/></g><path class="xlines-below"/><path class="ylines-below"/><g class="overlines-below"/><g class="xaxislayer-below"/><g class="yaxislayer-below"/><g class="overaxes-below"/><g class="overplot"><g class="xy" transform="translate(80,100)" clip-path="url(#clip6b790exyplot)"><g class="scatterlayer mlayer"><g class="trace scatter tracea5c312" style="stroke-miterlimit: 2;"><g class="fills"><g><path class="js-fill" d="M340,170L0,170L0,138.29H5.07V80.71H10.15V11.43H15.22V8.5H20.3V95.84H25.37V130.48H30.45V134.38H35.52V155.36H40.6V156.83H45.67V164.63H50.75V168.05H55.82V170H60.9V170H65.97V170H71.04V168.54H76.12V170H81.19V170H86.27V170H91.34V170H96.42V170H101.49V169.51H106.57V170H111.64V169.51H116.72V170H121.79V169.51H126.87V170H131.94V170H137.01V170H142.09V170H147.16V170H152.24V170H157.31V170H162.39V170H167.46V170H172.54V170H177.61V170H182.69V169.51H187.76V170H192.84V170H197.91V169.51H202.99V170H208.06V170H213.13V169.51H218.21V170H223.28V170H228.36V170H233.43V170H238.51V170H243.58V170H248.66V170H253.73V170H258.81V170H263.88V170H268.96V170H274.03V170H279.1V170H284.18V170H289.25V170H294.33V170H299.4V170H304.48V170H309.55V170H314.63V170H319.7V170H324.78V170H329.85V170H334.93V169.51H340V170" style="fill: rgb(79, 79, 79); fill-opacity: 0.12; stroke-width: 0;"/></g></g><g class="errorbars"/><g class="lines"><path class="js-line" d="M0,138.29H5.07V80.71H10.15V11.43H15.22V8.5H20.3V95.84H25.37V130.48H30.45V134.38H35.52V155.36H40.6V156.83H45.67V164.63H50.75V168.05H55.82V170H60.9V170H65.97V170H71.04V168.54H76.12V170H81.19V170H86.27V170H91.34V170H96.42V170H101.49V169.51H106.57V170H111.64V169.51H116.72V170H121.79V169.51H126.87V170H131.94V170H137.01V170H142.09V170H147.16V170H152.24V170H157.31V170H162.39V170H167.46V170H172.54V170H177.61V170H182.69V169.51H187.76V170H192.84V170H197.91V169.51H202.99V170H208.06V170H213.13V169.51H218.21V170H223.28V170H228.36V170H233.43V170H238.51V170H243.58V170H248.66V170H253.73V170H258.81V170H263.88V170H268.96V170H274.03V170H279.1V170H284.18V170H289.25V170H294.33V170H299.4V170H304.48V170H309.55V170H314.63V170H319.7V170H324.78V170H329.85V170H334.93V169.51H340V170" style="vector-effect: none; fill: none; stroke: rgb(79, 79, 79); stroke-opacity: 1; stroke-width: 1.5px; opacity: 1;"/></g><g class="points"/><g class="text"/></g><g class="trace scatter trace819441" style="stroke-miterlimit: 2;"><g class="fills"><g><path class="js-fill" d="M340,170L0,170L0,155.85H5.07V122.18H10.15V106.08H15.22V102.18H20.3V146.09H25.37V154.39H30.45V158.78H35.52V163.17H40.6V165.12H45.67V166.1H50.75V169.02H55.82V170H60.9V170H65.97V170H71.04V170H76.12V170H81.19V170H86.27V170H91.34V170H96.42V170H101.49V170H106.57V170H111.64V170H116.72V170H121.79V169.51H126.87V170H131.94V170H137.01V170H142.09V170H147.16V170H152.24V170H157.31V170H162.39V170H167.46V170H172.54V170H177.61V170H182.69V170H187.76V170H192.84V170H197.91V169.51H202.99V170H208.06V170H213.13V170H218.21V170H223.28V170H228.36V170H233.43V170H238.51V170H243.58V170H248.66V170H253.73V170H258.81V170H263.88V170H268.96V170H274.03V170H279.1V170H284.18V170H289.25V170H294.33V170H299.4V170H304.48V170H309.55V170H314.63V170H319.7V170H324.78V170H329.85V170H334.93V169.51H340V170" style="fill: rgb(119, 226, 177); fill-opacity: 0.12; stroke-width: 0;"/></g></g><g class="errorbars"/><g class="lines"><path class="js-line" d="M0,155.85H5.07V122.18H10.15V106.08H15.22V102.18H20.3V146.09H25.37V154.39H30.45V158.78H35.52V163.17H40.6V165.12H45.67V166.1H50.75V169.02H55.82V170H60.9V170H65.97V170H71.04V170H76.12V170H81.19V170H86.27V170H91.34V170H96.42V170H101.49V170H106.57V170H111.64V170H116.72V170H121.79V169.51H126.87V170H131.94V170H137.01V170H142.09V170H147.16V170H152.24V170H157.31V170H162.39V170H167.46V170H172.54V170H177.61V170H182.69V170H187.76V170H192.84V170H197.91V169.51H202.99V170H208.06V170H213.13V170H218.21V170H223.28V170H228.36V170H233.43V170H238.51V170H243.58V170H248.66V170H253.73V170H258.81V170H263.88V170H268.96V170H274.03V170H279.1V170H284.18V170H289.25V170H294.33V170H299.4V170H304.48V170H309.55V170H314.63V170H319.7V170H324.78V170H329.85V170H334.93V169.51H340V170" style="vector-effect: none; fill: none; stroke: rgb(119, 226, 177); stroke-opacity: 1; stroke-width: 1.5px; opacity: 1;"/></g><g class="points"/><g class="text"/></g><g class="trace scatter tracefd8273" style="stroke-miterlimit: 2;"><g class="fills"><g><path class="js-fill" d="M340,170L0,170L0,162.19H5.07V154.39H10.15V147.07H15.22V150H20.3V159.27H25.37V164.15H30.45V162.68H35.52V168.05H40.6V168.05H45.67V169.02H50.75V169.51H55.82V170H60.9V170H65.97V170H71.04V169.02H76.12V170H81.19V170H86.27V170H91.34V170H96.42V170H101.49V169.51H106.57V170H111.64V169.51H116.72V170H121.79V170H126.87V170H131.94V170H137.01V170H142.09V170H147.16V170H152.24V170H157.31V170H162.39V170H167.46V170H172.54V170H177.61V170H182.69V169.51H187.76V170H192.84V170H197.91V170H202.99V170H208.06V170H213.13V169.51H218.21V170H223.28V170H228.36V170H233.43V170H238.51V170H243.58V170H248.66V170H253.73V170H258.81V170H263.88V170H268.96V170H274.03V170H279.1V170H284.18V170H289.25V170H294.33V170H299.4V170H304.48V170H309.55V170H314.63V170H319.7V170H324.78V170H329.85V170H334.93V170H340V170" style="fill: rgb(132, 154, 234); fill-opacity: 0.12; stroke-width: 0;"/></g></g><g class="errorbars"/><g class="lines"><path class="js-line" d="M0,162.19H5.07V154.39H10.15V147.07H15.22V150H20.3V159.27H25.37V164.15H30.45V162.68H35.52V168.05H40.6V168.05H45.67V169.02H50.75V169.51H55.82V170H60.9V170H65.97V170H71.04V169.02H76.12V170H81.19V170H86.27V170H91.34V170H96.42V170H101.49V169.51H106.57V170H111.64V169.51H116.72V170H121.79V170H126.87V170H131.94V170H137.01V170H142.09V170H147.16V170H152.24V170H157.31V170H162.39V170H167.46V170H172.54V170H177.61V170H182.69V169.51H187.76V170H192.84V170H197.91V170H202.99V170H208.06V170H213.13V169.51H218.21V170H223.28V170H228.36V170H233.43V170H238.51V170H243.58V170H248.66V170H253.73V170H258.81V170H263.88V170H268.96V170H274.03V170H279.1V170H284.18V170H289.25V170H294.33V170H299.4V170H304.48V170H309.55V170H314.63V170H319.7V170H324.78V170H329.85V170H334.93V170H340V170" style="vector-effect: none; fill: none; stroke: rgb(132, 154, 234); stroke-opacity: 1; stroke-width: 1.5px; opacity: 1;"/></g><g class="points"/><g class="text"/></g></g></g></g><g class="zerolinelayer-above"/><path class="xlines-above crisp" d="M79.2,270.4H420" style="fill: none; stroke-width: 0.8px; stroke: rgb(0, 0, 0); stroke-opacity: 1;"/><path class="ylines-above crisp" d="M79.6,100V270" style="fill: none; stroke-width: 0.8px; stroke: rgb(0, 0, 0); stroke-opacity: 1;"/><g class="overlines-above"/><g class="xaxislayer-above"><g class="xtick"><text text-anchor="middle" x="0" y="285.2" transform="translate(203.06,0)" style="font-family: Arial; font-size: 12px; fill: rgb(0, 0, 0); fill-opacity: 1; white-space: pre;">100</text></g><g class="xtick"><text text-anchor="middle" x="0" y="285.2" style="font-family: Arial; font-size: 12px; fill: rgb(0, 0, 0); fill-opacity: 1; white-space: pre;" transform="translate(329.93,0)">200</text></g></g><g class="yaxislayer-above"><g class="ytick"><text text-anchor="end" x="76.8" y="4.199999999999999" transform="translate(0,270)" style="font-family: Arial; font-size: 12px; fill: rgb(0, 0, 0); fill-opacity: 1; white-space: pre;">0</text></g><g class="ytick"><text text-anchor="end" x="76.8" y="4.199999999999999" style="font-family: Arial; font-size: 12px; fill: rgb(0, 0, 0); fill-opacity: 1; white-space: pre;" transform="translate(0,221.20999999999998)">100</text></g><g class="ytick"><text text-anchor="end" x="76.8" y="4.199999999999999" style="font-family: Arial; font-size: 12px; fill: rgb(0, 0, 0); fill-opacity: 1; white-space: pre;" transform="translate(0,172.42000000000002)">200</text></g><g class="ytick"><text text-anchor="end" x="76.8" y="4.199999999999999" style="font-family: Arial; font-size: 12px; fill: rgb(0, 0, 0); fill-opacity: 1; white-space: pre;" transform="translate(0,123.63)">300</text></g></g><g class="overaxes-above"/></g></g><g class="polarlayer"/><g class="smithlayer"/><g class="ternarylayer"/><g class="geolayer"/><g class="funnelarealayer"/><g class="pielayer"/><g class="iciclelayer"/><g class="treemaplayer"/><g class="sunburstlayer"/><g class="glimages"/><defs id="topdefs-6b790e"><g class="clips"/><clipPath id="legend6b790e"><rect width="307" height="48" x="0" y="0"/></clipPath></defs><g class="layer-above"><g class="imagelayer"/><g class="shapelayer"/></g><g class="infolayer"><g class="legend" pointer-events="all" transform="translate(96.5,48.599999999999994)"><rect class="bg" shape-rendering="crispEdges" style="stroke: rgb(68, 68, 68); stroke-opacity: 1; fill: rgb(255, 255, 255); fill-opacity: 1; stroke-width: 0px;" width="307" height="48" x="0" y="0"/><g class="scrollbox" transform="" clip-path="url(#legend6b790e)"><g class="groups"><g class="traces" transform="translate(0,14.5)" style="opacity: 1;"><text class="legendtext" text-anchor="start" x="40" y="4.680000000000001" style="font-family: Arial; font-size: 12px; fill: rgb(0, 0, 0); fill-opacity: 1; white-space: pre;">R (all real)</text><g class="layers"><g class="legendfill"><path class="js-fill" d="M5,-2h30v6h-30z" style="stroke-width: 0; fill: rgb(79, 79, 79); fill-opacity: 0.12;"/></g><g class="legendlines"><path class="js-line" d="M5,-2h30" style="fill: none; stroke: rgb(79, 79, 79); stroke-opacity: 1; stroke-width: 1.5px;"/></g><g class="legendsymbols"><g class="legendpoints"/></g></g><rect class="legendtoggle" x="0" y="-9.5" width="97.845703125" height="19" style="fill: rgb(0, 0, 0); fill-opacity: 0;"/></g><g class="traces" transform="translate(153.267578125,14.5)" style="opacity: 1;"><text class="legendtext" text-anchor="start" x="40" y="4.680000000000001" style="font-family: Arial; font-size: 12px; fill: rgb(0, 0, 0); fill-opacity: 1; white-space: pre;">Training (Generator)</text><g class="layers"><g class="legendfill"><path class="js-fill" d="M5,-2h30v6h-30z" style="stroke-width: 0; fill: rgb(119, 226, 177); fill-opacity: 0.12;"/></g><g class="legendlines"><path class="js-line" d="M5,-2h30" style="fill: none; stroke: rgb(119, 226, 177); stroke-opacity: 1; stroke-width: 1.5px;"/></g><g class="legendsymbols"><g class="legendpoints"/></g></g><rect class="legendtoggle" x="0" y="-9.5" width="150.767578125" height="19" style="fill: rgb(0, 0, 0); fill-opacity: 0;"/></g><g class="traces" transform="translate(0,33.5)" style="opacity: 1;"><text class="legendtext" text-anchor="start" x="40" y="4.680000000000001" style="font-family: Arial; font-size: 12px; fill: rgb(0, 0, 0); fill-opacity: 1; white-space: pre;">Training (Classifier)</text><g class="layers"><g class="legendfill"><path class="js-fill" d="M5,-2h30v6h-30z" style="stroke-width: 0; fill: rgb(132, 154, 234); fill-opacity: 0.12;"/></g><g class="legendlines"><path class="js-line" d="M5,-2h30" style="fill: none; stroke: rgb(132, 154, 234); stroke-opacity: 1; stroke-width: 1.5px;"/></g><g class="legendsymbols"><g class="legendpoints"/></g></g><rect class="legendtoggle" x="0" y="-9.5" width="146.080078125" height="19" style="fill: rgb(0, 0, 0); fill-opacity: 0;"/></g></g></g><rect class="scrollbar" rx="20" ry="3" width="0" height="0" style="fill: rgb(128, 139, 164); fill-opacity: 1;" x="0" y="0"/></g><g class="g-gtitle"/><g class="g-xtitle"><text class="xtitle" x="250" y="311.90019531250005" text-anchor="middle" style="opacity: 1; font-family: Arial; font-size: 13px; fill: rgb(0, 0, 0); fill-opacity: 1; white-space: pre;">Sequence Length</text></g><g class="g-ytitle"><text class="ytitle" transform="rotate(-90,37.61855468750001,185)" x="37.61855468750001" y="185" text-anchor="middle" style="opacity: 1; font-family: Arial; font-size: 13px; fill: rgb(0, 0, 0); fill-opacity: 1; white-space: pre;">Count</text></g></g></svg>