<svg class="main-svg" xmlns="http://www.w3.org/2000/svg" xmlns:xlink="http://www.w3.org/1999/xlink" width="500" height="500" style="" viewBox="0 0 500 500"><rect x="0" y="0" width="500" height="500" style="fill: rgb(255, 255, 255); fill-opacity: 1;"/><defs id="defs-a94188"><g class="clips"><clipPath id="clipa94188polar-for-traces"><path d="M160,0A160,160 0,1,0 -160,-1.9594348786357652e-14A160,160 0,1,0 160,3.9188697572715304e-14Z" transform="translate(160,160)"/></clipPath></g><g class="gradients"/><g class="patterns"/></defs><g class="bglayer"/><g class="layer-below"><g class="imagelayer"/><g class="shapelayer"/></g><g class="cartesianlayer"/><g class="polarlayer"><g class="polar"><g class="polarsublayer draglayer"/><g class="polarsublayer plotbg"><path d="M160,0A160,160 0,1,0 -160,-1.9594348786357652e-14A160,160 0,1,0 160,3.9188697572715304e-14Z" transform="translate(250,260)" style="fill: rgb(255, 255, 255); fill-opacity: 1;"/></g><g class="polarsublayer backplot"><g class="maplayer"/></g><g class="polarsublayer angular-grid" style="fill: none;"><path class="angularaxisgrid" d="M250,260L410,260" style="stroke: rgb(213, 213, 213); stroke-opacity: 1; stroke-width: 1px;"/><path class="angularaxisgrid" d="M250,260L404.973305780581,220.20961805362322" style="stroke: rgb(213, 213, 213); stroke-opacity: 1; stroke-width: 1px;"/><path class="angularaxisgrid" d="M250,260L390.2090688070182,182.91941214372554" style="stroke: rgb(213, 213, 213); stroke-opacity: 1; stroke-width: 1px;"/><path class="angularaxisgrid" d="M250,260L366.63498038742586,150.47246305140982" style="stroke: rgb(213, 213, 213); stroke-opacity: 1; stroke-width: 1px;"/><path class="angularaxisgrid" d="M250,260L335.73228719663945,124.90753191967758" style="stroke: rgb(213, 213, 213); stroke-opacity: 1; stroke-width: 1px;"/><path class="angularaxisgrid" d="M250,260L299.44271909999156,107.83095739277545" style="stroke: rgb(213, 213, 213); stroke-opacity: 1; stroke-width: 1px;"/><path class="angularaxisgrid" d="M250,260L260.04648312469016,100.31572345147654" style="stroke: rgb(213, 213, 213); stroke-opacity: 1; stroke-width: 1px;"/><path class="angularaxisgrid" d="M250,260L220.01898966628406,102.83403988340982" style="stroke: rgb(213, 213, 213); stroke-opacity: 1; stroke-width: 1px;"/><path class="angularaxisgrid" d="M250,260L181.87531334958837,115.22767160543688" style="stroke: rgb(213, 213, 213); stroke-opacity: 1; stroke-width: 1px;"/><path class="angularaxisgrid" d="M250,260L148.01216164020963,136.71788115587373" style="stroke: rgb(213, 213, 213); stroke-opacity: 1; stroke-width: 1px;"/><path class="angularaxisgrid" d="M250,260L120.55728090000844,165.95435963320426" style="stroke: rgb(213, 213, 213); stroke-opacity: 1; stroke-width: 1px;"/><path class="angularaxisgrid" d="M250,260L101.2357622578798,201.1000715704515" style="stroke: rgb(213, 213, 213); stroke-opacity: 1; stroke-width: 1px;"/><path class="angularaxisgrid" d="M250,260L91.26164778968356,239.9466826297113" style="stroke: rgb(213, 213, 213); stroke-opacity: 1; stroke-width: 1px;"/><path class="angularaxisgrid" d="M250,260L91.26164778968354,280.0533173702887" style="stroke: rgb(213, 213, 213); stroke-opacity: 1; stroke-width: 1px;"/><path class="angularaxisgrid" d="M250,260L101.23576225787977,318.8999284295485" style="stroke: rgb(213, 213, 213); stroke-opacity: 1; stroke-width: 1px;"/><path class="angularaxisgrid" d="M250,260L120.55728090000835,354.0456403667956" style="stroke: rgb(213, 213, 213); stroke-opacity: 1; stroke-width: 1px;"/><path class="angularaxisgrid" d="M250,260L148.01216164020968,383.28211884412633" style="stroke: rgb(213, 213, 213); stroke-opacity: 1; stroke-width: 1px;"/><path class="angularaxisgrid" d="M250,260L181.87531334958845,404.77232839456315" style="stroke: rgb(213, 213, 213); stroke-opacity: 1; stroke-width: 1px;"/><path class="angularaxisgrid" d="M250,260L220.01898966628406,417.1659601165902" style="stroke: rgb(213, 213, 213); stroke-opacity: 1; stroke-width: 1px;"/><path class="angularaxisgrid" d="M250,260L260.04648312469004,419.6842765485235" style="stroke: rgb(213, 213, 213); stroke-opacity: 1; stroke-width: 1px;"/><path class="angularaxisgrid" d="M250,260L299.44271909999156,412.1690426072246" style="stroke: rgb(213, 213, 213); stroke-opacity: 1; stroke-width: 1px;"/><path class="angularaxisgrid" d="M250,260L335.7322871966395,395.0924680803224" style="stroke: rgb(213, 213, 213); stroke-opacity: 1; stroke-width: 1px;"/><path class="angularaxisgrid" d="M250,260L366.6349803874258,369.52753694859024" style="stroke: rgb(213, 213, 213); stroke-opacity: 1; stroke-width: 1px;"/><path class="angularaxisgrid" d="M250,260L390.20906880701807,337.0805878562746" style="stroke: rgb(213, 213, 213); stroke-opacity: 1; stroke-width: 1px;"/><path class="angularaxisgrid" d="M250,260L404.973305780581,299.79038194637684" style="stroke: rgb(213, 213, 213); stroke-opacity: 1; stroke-width: 1px;"/></g><g class="polarsublayer radial-grid" transform="translate(250,260)" style="fill: none;"><path class="xgrid" d="M35.33,0A35.33,35.33 0,1,0 -35.33,-4.3266771413875985e-15A35.33,35.33 0,1,0 35.33,8.653354282775197e-15Z" style="stroke: rgb(213, 213, 213); stroke-opacity: 1; stroke-width: 1px;"/><path class="xgrid" d="M70.66,0A70.66,70.66 0,1,0 -70.66,-8.653354282775197e-15A70.66,70.66 0,1,0 70.66,1.7306708565550394e-14Z" style="stroke: rgb(213, 213, 213); stroke-opacity: 1; stroke-width: 1px;"/><path class="xgrid" d="M105.99,0A105.99,105.99 0,1,0 -105.99,-1.2980031424162796e-14A105.99,105.99 0,1,0 105.99,2.5960062848325593e-14Z" style="stroke: rgb(213, 213, 213); stroke-opacity: 1; stroke-width: 1px;"/><path class="xgrid" d="M141.32,0A141.32,141.32 0,1,0 -141.32,-1.7306708565550394e-14A141.32,141.32 0,1,0 141.32,3.461341713110079e-14Z" style="stroke: rgb(213, 213, 213); stroke-opacity: 1; stroke-width: 1px;"/></g><g class="polarsublayer frontplot" transform="translate(90,100)" clip-path="url(#clipa94188polar-for-traces)"><g class="barlayer"/><g class="scatterlayer"><g class="trace scatter trace0a6f30" style="stroke-miterlimit: 2; opacity: 1;"><g class="fills"><g><path class="js-fill" d="M207.77,160L178.77,155.18L170.7,154.12L171.66,149.05L170.04,144.17L175.89,111.08L161.54,135.46L154.91,133.33L125.47,86.62L120.61,112.38L152.07,154.24L146.98,154.84L125.45,155.64L140.18,162.5L25.6,213.21L137.86,176.09L147.17,175.51L149.49,182.33L154.88,186.85L160.92,174.55L162.34,167.19L160.01,160.01L160.38,160.36L160.29,160.16L160.72,160.18L207.77,160Z" style="fill: rgb(79, 79, 79); fill-opacity: 0.05; stroke-width: 0;"/></g></g><g class="errorbars"/><g class="lines"><path class="js-line" d="M207.77,160L178.77,155.18L170.7,154.12L171.66,149.05L170.04,144.17L175.89,111.08L161.54,135.46L154.91,133.33L125.47,86.62L120.61,112.38L152.07,154.24L146.98,154.84L125.45,155.64L140.18,162.5L25.6,213.21L137.86,176.09L147.17,175.51L149.49,182.33L154.88,186.85L160.92,174.55L162.34,167.19L160.01,160.01L160.38,160.36L160.29,160.16L160.72,160.18L207.77,160" style="vector-effect: none; fill: none; stroke: rgb(79, 79, 79); stroke-opacity: 1; stroke-width: 1.5px; opacity: 1;"/></g><g class="points"/><g class="text"/></g><g class="trace scatter tracec3eb77" style="stroke-miterlimit: 2; opacity: 1;"><g class="fills"><g><path class="js-fill" d="M201.34,160L185.71,153.4L170.7,154.12L172.39,148.37L167.53,148.13L178.54,102.95L161.67,133.43L155.62,137.03L124.91,85.44L126.28,119.24L152.05,154.23L149.15,155.7L126.02,155.71L140.77,162.43L11.24,218.9L143.08,172.3L150.05,172.02L149.39,182.55L154.55,188.57L160.82,172.96L163.15,169.71L160.02,160.03L160.59,160.55L160.37,160.2L160.04,160.01L201.34,160Z" style="fill: rgb(119, 226, 177); fill-opacity: 0.05; stroke-width: 0;"/></g></g><g class="errorbars"/><g class="lines"><path class="js-line" d="M201.34,160L185.71,153.4L170.7,154.12L172.39,148.37L167.53,148.13L178.54,102.95L161.67,133.43L155.62,137.03L124.91,85.44L126.28,119.24L152.05,154.23L149.15,155.7L126.02,155.71L140.77,162.43L11.24,218.9L143.08,172.3L150.05,172.02L149.39,182.55L154.55,188.57L160.82,172.96L163.15,169.71L160.02,160.03L160.59,160.55L160.37,160.2L160.04,160.01L201.34,160" style="vector-effect: none; fill: none; stroke: rgb(119, 226, 177); stroke-opacity: 1; stroke-width: 1.5px; opacity: 1;"/></g><g class="points"/><g class="text"/></g><g class="trace scatter trace51a4ea" style="stroke-miterlimit: 2; opacity: 1;"><g class="fills"><g><path class="js-fill" d="M205.49,160L178.04,155.37L171.28,153.8L176.14,144.84L174.05,137.86L179.73,99.29L162.04,127.55L156.79,143.16L129.98,96.21L121.56,113.53L154.08,155.7L146.99,154.85L120.75,155.04L146.49,161.71L40.87,207.17L138.19,175.85L146.95,175.78L143.87,194.29L153.63,193.4L160.91,174.52L160.03,160.09L160.05,160.08L160.07,160.06L160.08,160.04L160.09,160.02L205.49,160Z" style="fill: rgb(132, 154, 234); fill-opacity: 0.05; stroke-width: 0;"/></g></g><g class="errorbars"/><g class="lines"><path class="js-line" d="M205.49,160L178.04,155.37L171.28,153.8L176.14,144.84L174.05,137.86L179.73,99.29L162.04,127.55L156.79,143.16L129.98,96.21L121.56,113.53L154.08,155.7L146.99,154.85L120.75,155.04L146.49,161.71L40.87,207.17L138.19,175.85L146.95,175.78L143.87,194.29L153.63,193.4L160.91,174.52L160.03,160.09L160.05,160.08L160.07,160.06L160.08,160.04L160.09,160.02L205.49,160" style="vector-effect: none; fill: none; stroke: rgb(132, 154, 234); stroke-opacity: 1; stroke-width: 1.5px; opacity: 1;"/></g><g class="points"/><g class="text"/></g></g></g><g class="polarsublayer angular-line"><path d="M160,0A160,160 0,1,0 -160,-1.9594348786357652e-14A160,160 0,1,0 160,3.9188697572715304e-14Z" transform="translate(250,260)" stroke-width="1" style="fill: none; stroke: rgb(213, 213, 213); stroke-opacity: 1;"/></g><g class="polarsublayer radial-line"><line x1="0" y1="0" x2="160" y2="0" transform="translate(250,260)" stroke-width="1" style="fill: none; stroke: rgb(213, 213, 213); stroke-opacity: 1;"/></g><g class="polarsublayer angular-axis"><g class="angularaxistick"><text text-anchor="start" x="2.9000000000000004" y="4.199999999999999" transform="translate(410,260)" style="font-family: Arial; font-size: 12px; fill: rgb(0, 0, 0); fill-opacity: 1; white-space: pre;">A</text></g><g class="angularaxistick"><text text-anchor="start" x="2.8088911672730306" y="2.749992874766519" transform="translate(404.973305780581,220.20961805362322)" style="font-family: Arial; font-size: 12px; fill: rgb(0, 0, 0); fill-opacity: 1; white-space: pre;">C</text></g><g class="angularaxistick"><text text-anchor="start" x="2.5412893721272045" y="1.127193583445135" transform="translate(390.2090688070182,182.91941214372554)" style="font-family: Arial; font-size: 12px; fill: rgb(0, 0, 0); fill-opacity: 1; white-space: pre;">D</text></g><g class="angularaxistick"><text text-anchor="start" x="2.114009019522094" y="-0.5664314262521222" transform="translate(366.63498038742586,150.47246305140982)" style="font-family: Arial; font-size: 12px; fill: rgb(0, 0, 0); fill-opacity: 1; white-space: pre;">E</text></g><g class="angularaxistick"><text text-anchor="start" x="1.5538977054390901" y="-2.2244654662488954" transform="translate(335.73228719663945,124.90753191967758)" style="font-family: Arial; font-size: 12px; fill: rgb(0, 0, 0); fill-opacity: 1; white-space: pre;">F</text></g><g class="angularaxistick"><text text-anchor="start" x="0.8961492836873477" y="-3.742728159989535" transform="translate(299.44271909999156,107.83095739277545)" style="font-family: Arial; font-size: 12px; fill: rgb(0, 0, 0); fill-opacity: 1; white-space: pre;">G</text></g><g class="angularaxistick"><text text-anchor="middle" x="0.18209250663500925" y="-5.025821478646723" transform="translate(260.04648312469016,100.31572345147654)" style="font-family: Arial; font-size: 12px; fill: rgb(0, 0, 0); fill-opacity: 1; white-space: pre;">H</text></g><g class="angularaxistick"><text text-anchor="end" x="-0.5434058122986014" y="-4.419120907602008" transform="translate(220.01898966628406,102.83403988340982)" style="font-family: Arial; font-size: 12px; fill: rgb(0, 0, 0); fill-opacity: 1; white-space: pre;">I</text></g><g class="angularaxistick"><text text-anchor="end" x="-1.234759945538711" y="-3.0073103534965986" transform="translate(181.87531334958837,115.22767160543688)" style="font-family: Arial; font-size: 12px; fill: rgb(0, 0, 0); fill-opacity: 1; white-space: pre;">K</text></g><g class="angularaxistick"><text text-anchor="end" x="-1.8485295702712006" y="-1.4065394297671876" transform="translate(148.01216164020963,136.71788115587373)" style="font-family: Arial; font-size: 12px; fill: rgb(0, 0, 0); fill-opacity: 1; white-space: pre;">L</text></g><g class="angularaxistick"><text text-anchor="end" x="-2.3461492836873474" y="0.2826095392246697" transform="translate(120.55728090000844,165.95435963320426)" style="font-family: Arial; font-size: 12px; fill: rgb(0, 0, 0); fill-opacity: 1; white-space: pre;">M</text></g><g class="angularaxistick"><text text-anchor="end" x="-2.6963518090759293" y="1.9540011115018605" transform="translate(101.2357622578798,201.1000715704515)" style="font-family: Arial; font-size: 12px; fill: rgb(0, 0, 0); fill-opacity: 1; white-space: pre;">N</text></g><g class="angularaxistick"><text text-anchor="end" x="-2.877132633811986" y="3.502615607629992" transform="translate(91.26164778968356,239.9466826297113)" style="font-family: Arial; font-size: 12px; fill: rgb(0, 0, 0); fill-opacity: 1; white-space: pre;">P</text></g><g class="angularaxistick"><text text-anchor="end" x="-2.877132633811986" y="6.03434692562894" transform="translate(91.26164778968354,280.0533173702887)" style="font-family: Arial; font-size: 12px; fill: rgb(0, 0, 0); fill-opacity: 1; white-space: pre;">Q</text></g><g class="angularaxistick"><text text-anchor="end" x="-2.6963518090759298" y="9.390117075732356" transform="translate(101.23576225787977,318.8999284295485)" style="font-family: Arial; font-size: 12px; fill: rgb(0, 0, 0); fill-opacity: 1; white-space: pre;">R</text></g><g class="angularaxistick"><text text-anchor="end" x="-2.3461492836873488" y="12.155871635532623" transform="translate(120.55728090000835,354.0456403667956)" style="font-family: Arial; font-size: 12px; fill: rgb(0, 0, 0); fill-opacity: 1; white-space: pre;">S</text></g><g class="angularaxistick"><text text-anchor="end" x="-1.8485295702712" y="14.157828074303758" transform="translate(148.01216164020968,383.28211884412633)" style="font-family: Arial; font-size: 12px; fill: rgb(0, 0, 0); fill-opacity: 1; white-space: pre;">T</text></g><g class="angularaxistick"><text text-anchor="end" x="-1.2347599455387095" y="15.270196106316998" transform="translate(181.87531334958845,404.77232839456315)" style="font-family: Arial; font-size: 12px; fill: rgb(0, 0, 0); fill-opacity: 1; white-space: pre;">V</text></g><g class="angularaxistick"><text text-anchor="end" x="-0.5434058122986015" y="15.423081557117506" transform="translate(220.01898966628406,417.1659601165902)" style="font-family: Arial; font-size: 12px; fill: rgb(0, 0, 0); fill-opacity: 1; white-space: pre;">W</text></g><g class="angularaxistick"><text text-anchor="middle" x="0.18209250663500723" y="15.13431843560436" transform="translate(260.04648312469004,419.6842765485235)" style="font-family: Arial; font-size: 12px; fill: rgb(0, 0, 0); fill-opacity: 1; white-space: pre;">Y</text></g><g class="angularaxistick"><text text-anchor="start" x="0.896149283687347" y="15.468613469172567" transform="translate(299.44271909999156,412.1690426072246)" style="font-family: Arial; font-size: 12px; fill: rgb(0, 0, 0); fill-opacity: 1; white-space: pre;">X</text></g><g class="angularaxistick"><text text-anchor="start" x="1.5538977054390908" y="14.83095862889181" transform="translate(335.7322871966395,395.0924680803224)" style="font-family: Arial; font-size: 12px; fill: rgb(0, 0, 0); fill-opacity: 1; white-space: pre;">Z</text></g><g class="angularaxistick"><text text-anchor="start" x="2.1140090195220926" y="13.261420113507393" transform="translate(366.6349803874258,369.52753694859024)" style="font-family: Arial; font-size: 12px; fill: rgb(0, 0, 0); fill-opacity: 1; white-space: pre;">B</text></g><g class="angularaxistick"><text text-anchor="start" x="2.5412893721272036" y="10.858617800299795" transform="translate(390.20906880701807,337.0805878562746)" style="font-family: Arial; font-size: 12px; fill: rgb(0, 0, 0); fill-opacity: 1; white-space: pre;">U</text></g><g class="angularaxistick"><text text-anchor="start" x="2.80889116727303" y="7.773528595496595" transform="translate(404.973305780581,299.79038194637684)" style="font-family: Arial; font-size: 12px; fill: rgb(0, 0, 0); fill-opacity: 1; white-space: pre;">O</text></g></g><g class="polarsublayer radial-axis" transform="translate(250,260)"><g class="xtick"><text text-anchor="middle" x="0" y="14.9" transform="" style="font-family: Arial; font-size: 12px; fill: rgb(128, 128, 128); fill-opacity: 1; white-space: pre;">0</text></g><g class="xtick"><text text-anchor="middle" x="0" y="14.9" transform="translate(35.33,0)" style="font-family: Arial; font-size: 12px; fill: rgb(128, 128, 128); fill-opacity: 1; white-space: pre;">0.05</text></g><g class="xtick"><text text-anchor="middle" x="0" y="14.9" transform="translate(70.66,0)" style="font-family: Arial; font-size: 12px; fill: rgb(128, 128, 128); fill-opacity: 1; white-space: pre;">0.1</text></g><g class="xtick"><text text-anchor="middle" x="0" y="14.9" transform="translate(105.99,0)" style="font-family: Arial; font-size: 12px; fill: rgb(128, 128, 128); fill-opacity: 1; white-space: pre;">0.15</text></g><g class="xtick"><text text-anchor="middle" x="0" y="14.9" transform="translate(141.32,0)" style="font-family: Arial; font-size: 12px; fill: rgb(128, 128, 128); fill-opacity: 1; white-space: pre;">0.2</text></g></g></g></g><g class="smithlayer"/><g class="ternarylayer"/><g class="geolayer"/><g class="funnelarealayer"/><g class="pielayer"/><g class="iciclelayer"/><g class="treemaplayer"/><g class="sunburstlayer"/><g class="glimages"/><defs id="topdefs-a94188"><g class="clips"/><clipPath id="legenda94188"><rect width="307" height="48" x="0" y="0"/></clipPath></defs><g class="layer-above"><g class="imagelayer"/><g class="shapelayer"/></g><g class="infolayer"><g class="legend" pointer-events="all" transform="translate(96.5,45.599999999999994)"><rect class="bg" shape-rendering="crispEdges" style="stroke: rgb(68, 68, 68); stroke-opacity: 1; fill: rgb(255, 255, 255); fill-opacity: 1; stroke-width: 0px;" width="307" height="48" x="0" y="0"/><g class="scrollbox" transform="" clip-path="url(#legenda94188)"><g class="groups"><g class="traces" transform="translate(0,14.5)" style="opacity: 1;"><text class="legendtext" text-anchor="start" x="40" y="4.680000000000001" style="font-family: Arial; font-size: 12px; fill: rgb(0, 0, 0); fill-opacity: 1; white-space: pre;">R (all real)</text><g class="layers" style="opacity: 1;"><g class="legendfill"><path class="js-fill" d="M5,-2h30v6h-30z" style="stroke-width: 0; fill: rgb(79, 79, 79); fill-opacity: 0.05;"/></g><g class="legendlines"><path class="js-line" d="M5,-2h30" style="fill: none; stroke: rgb(79, 79, 79); stroke-opacity: 1; stroke-width: 1.5px;"/></g><g class="legendsymbols"><g class="legendpoints"/></g></g><rect class="legendtoggle" x="0" y="-9.5" width="97.845703125" height="19" style="fill: rgb(0, 0, 0); fill-opacity: 0;"/></g><g class="traces" transform="translate(153.267578125,14.5)" style="opacity: 1;"><text class="legendtext" text-anchor="start" x="40" y="4.680000000000001" style="font-family: Arial; font-size: 12px; fill: rgb(0, 0, 0); fill-opacity: 1; white-space: pre;">Training (Generator)</text><g class="layers" style="opacity: 1;"><g class="legendfill"><path class="js-fill" d="M5,-2h30v6h-30z" style="stroke-width: 0; fill: rgb(119, 226, 177); fill-opacity: 0.05;"/></g><g class="legendlines"><path class="js-line" d="M5,-2h30" style="fill: none; stroke: rgb(119, 226, 177); stroke-opacity: 1; stroke-width: 1.5px;"/></g><g class="legendsymbols"><g class="legendpoints"/></g></g><rect class="legendtoggle" x="0" y="-9.5" width="150.767578125" height="19" style="fill: rgb(0, 0, 0); fill-opacity: 0;"/></g><g class="traces" transform="translate(0,33.5)" style="opacity: 1;"><text class="legendtext" text-anchor="start" x="40" y="4.680000000000001" style="font-family: Arial; font-size: 12px; fill: rgb(0, 0, 0); fill-opacity: 1; white-space: pre;">Training (Classifier)</text><g class="layers" style="opacity: 1;"><g class="legendfill"><path class="js-fill" d="M5,-2h30v6h-30z" style="stroke-width: 0; fill: rgb(132, 154, 234); fill-opacity: 0.05;"/></g><g class="legendlines"><path class="js-line" d="M5,-2h30" style="fill: none; stroke: rgb(132, 154, 234); stroke-opacity: 1; stroke-width: 1.5px;"/></g><g class="legendsymbols"><g class="legendpoints"/></g></g><rect class="legendtoggle" x="0" y="-9.5" width="146.080078125" height="19" style="fill: rgb(0, 0, 0); fill-opacity: 0;"/></g></g></g><rect class="scrollbar" rx="20" ry="3" width="0" height="0" style="fill: rgb(128, 139, 164); fill-opacity: 1;" x="0" y="0"/></g><g class="g-gtitle"/><g class="g-polartitle"/></g></svg>