<svg class="main-svg" xmlns="http://www.w3.org/2000/svg" xmlns:xlink="http://www.w3.org/1999/xlink" width="500" height="350" style="" viewBox="0 0 500 350"><rect x="0" y="0" width="500" height="350" style="fill: rgb(255, 255, 255); fill-opacity: 1;"/><defs id="defs-540c44"><g class="clips"><clipPath id="clip540c44xyplot" class="plotclip"><rect width="340" height="169"/></clipPath><clipPath class="axesclip" id="clip540c44x"><rect x="80" y="0" width="340" height="350"/></clipPath><clipPath class="axesclip" id="clip540c44y"><rect x="0" y="101" width="500" height="169"/></clipPath><clipPath class="axesclip" id="clip540c44xy"><rect x="80" y="101" width="340" height="169"/></clipPath></g><g class="gradients"/><g class="patterns"/></defs><g class="bglayer"/><g class="layer-below"><g class="imagelayer"/><g class="shapelayer"/></g><g class="cartesianlayer"><g class="subplot xy"><g class="layer-subplot"><g class="shapelayer"/><g class="imagelayer"/></g><g class="minor-gridlayer"><g class="x"/><g class="y"/></g><g class="gridlayer"><g class="x"><path class="xgrid crisp" transform="translate(203.06,0)" d="M0,101v169" style="stroke: rgb(238, 238, 238); stroke-opacity: 1; stroke-width: 1px;"/><path class="xgrid crisp" transform="translate(329.93,0)" d="M0,101v169" style="stroke: rgb(238, 238, 238); stroke-opacity: 1; stroke-width: 1px;"/></g><g class="y"><path class="ygrid crisp" transform="translate(0,235.1)" d="M80,0h340" style="stroke: rgb(238, 238, 238); stroke-opacity: 1; stroke-width: 1px;"/><path class="ygrid crisp" transform="translate(0,200.2)" d="M80,0h340" style="stroke: rgb(238, 238, 238); stroke-opacity: 1; stroke-width: 1px;"/><path class="ygrid crisp" transform="translate(0,165.29000000000002)" d="M80,0h340" style="stroke: rgb(238, 238, 238); stroke-opacity: 1; stroke-width: 1px;"/><path class="ygrid crisp" transform="translate(0,130.39)" d="M80,0h340" style="stroke: rgb(238, 238, 238); stroke-opacity: 1; stroke-width: 1px;"/></g></g><g class="zerolinelayer"><path class="yzl zl crisp" transform="translate(0,270)" d="M80,0h340" style="stroke: rgb(255, 255, 255); stroke-opacity: 1; stroke-width: 2px;"/></g><g class="layer-between"><g class="shapelayer"/><g class="imagelayer"/></g><path class="xlines-below"/><path class="ylines-below"/><g class="overlines-below"/><g class="xaxislayer-below"/><g class="yaxislayer-below"/><g class="overaxes-below"/><g class="overplot"><g class="xy" transform="translate(80,101)" clip-path="url(#clip540c44xyplot)"><g class="scatterlayer mlayer"><g class="trace scatter tracea70895" style="stroke-miterlimit: 2;"><g class="fills"><g><path class="js-fill" d="M340,169L0,169L0,146.31H5.07V105.13H10.15V55.57H15.22V53.47H20.3V115.95H25.37V140.73H30.45V143.52H35.52V158.53H40.6V159.58H45.67V165.16H50.75V167.6H55.82V169H60.9V169H65.97V169H71.04V167.95H76.12V169H81.19V169H86.27V169H91.34V169H96.42V169H101.49V168.65H106.57V169H111.64V168.65H116.72V169H121.79V168.65H126.87V169H131.94V169H137.01V169H142.09V169H147.16V169H152.24V169H157.31V169H162.39V169H167.46V169H172.54V169H177.61V169H182.69V168.65H187.76V169H192.84V169H197.91V168.65H202.99V169H208.06V169H213.13V168.65H218.21V169H223.28V169H228.36V169H233.43V169H238.51V169H243.58V169H248.66V169H253.73V169H258.81V169H263.88V169H268.96V169H274.03V169H279.1V169H284.18V169H289.25V169H294.33V169H299.4V169H304.48V169H309.55V169H314.63V169H319.7V169H324.78V169H329.85V169H334.93V168.65H340V169" style="fill: rgb(79, 79, 79); fill-opacity: 0.12; stroke-width: 0;"/></g></g><g class="errorbars"/><g class="lines"><path class="js-line" d="M0,146.31H5.07V105.13H10.15V55.57H15.22V53.47H20.3V115.95H25.37V140.73H30.45V143.52H35.52V158.53H40.6V159.58H45.67V165.16H50.75V167.6H55.82V169H60.9V169H65.97V169H71.04V167.95H76.12V169H81.19V169H86.27V169H91.34V169H96.42V169H101.49V168.65H106.57V169H111.64V168.65H116.72V169H121.79V168.65H126.87V169H131.94V169H137.01V169H142.09V169H147.16V169H152.24V169H157.31V169H162.39V169H167.46V169H172.54V169H177.61V169H182.69V168.65H187.76V169H192.84V169H197.91V168.65H202.99V169H208.06V169H213.13V168.65H218.21V169H223.28V169H228.36V169H233.43V169H238.51V169H243.58V169H248.66V169H253.73V169H258.81V169H263.88V169H268.96V169H274.03V169H279.1V169H284.18V169H289.25V169H294.33V169H299.4V169H304.48V169H309.55V169H314.63V169H319.7V169H324.78V169H329.85V169H334.93V168.65H340V169" style="vector-effect: none; fill: none; stroke: rgb(79, 79, 79); stroke-opacity: 1; stroke-width: 1.5px; opacity: 1;"/></g><g class="points"/><g class="text"/></g><g class="trace scatter trace36a2e9" style="stroke-miterlimit: 2;"><g class="fills"><g><path class="js-fill" d="M340,169L0,169L0,158.88H5.07V134.8H10.15V123.28H15.22V120.49H20.3V151.9H25.37V157.83H30.45V160.97H35.52V164.11H40.6V165.51H45.67V166.21H50.75V168.3H55.82V169H60.9V169H65.97V169H71.04V169H76.12V169H81.19V169H86.27V169H91.34V169H96.42V169H101.49V169H106.57V169H111.64V169H116.72V169H121.79V168.65H126.87V169H131.94V169H137.01V169H142.09V169H147.16V169H152.24V169H157.31V169H162.39V169H167.46V169H172.54V169H177.61V169H182.69V169H187.76V169H192.84V169H197.91V168.65H202.99V169H208.06V169H213.13V169H218.21V169H223.28V169H228.36V169H233.43V169H238.51V169H243.58V169H248.66V169H253.73V169H258.81V169H263.88V169H268.96V169H274.03V169H279.1V169H284.18V169H289.25V169H294.33V169H299.4V169H304.48V169H309.55V169H314.63V169H319.7V169H324.78V169H329.85V169H334.93V168.65H340V169" style="fill: rgb(119, 226, 177); fill-opacity: 0.12; stroke-width: 0;"/></g></g><g class="errorbars"/><g class="lines"><path class="js-line" d="M0,158.88H5.07V134.8H10.15V123.28H15.22V120.49H20.3V151.9H25.37V157.83H30.45V160.97H35.52V164.11H40.6V165.51H45.67V166.21H50.75V168.3H55.82V169H60.9V169H65.97V169H71.04V169H76.12V169H81.19V169H86.27V169H91.34V169H96.42V169H101.49V169H106.57V169H111.64V169H116.72V169H121.79V168.65H126.87V169H131.94V169H137.01V169H142.09V169H147.16V169H152.24V169H157.31V169H162.39V169H167.46V169H172.54V169H177.61V169H182.69V169H187.76V169H192.84V169H197.91V168.65H202.99V169H208.06V169H213.13V169H218.21V169H223.28V169H228.36V169H233.43V169H238.51V169H243.58V169H248.66V169H253.73V169H258.81V169H263.88V169H268.96V169H274.03V169H279.1V169H284.18V169H289.25V169H294.33V169H299.4V169H304.48V169H309.55V169H314.63V169H319.7V169H324.78V169H329.85V169H334.93V168.65H340V169" style="vector-effect: none; fill: none; stroke: rgb(119, 226, 177); stroke-opacity: 1; stroke-width: 1.5px; opacity: 1;"/></g><g class="points"/><g class="text"/></g><g class="trace scatter trace8eeaac" style="stroke-miterlimit: 2;"><g class="fills"><g><path class="js-fill" d="M340,169L0,169L0,168.3H5.07V152.6H10.15V123.98H15.22V127.12H20.3V140.03H25.37V145.96H30.45V151.55H35.52V157.83H40.6V157.48H45.67V158.18H50.75V165.16H55.82V161.67H60.9V162.37H65.97V165.51H71.04V164.11H76.12V166.56H81.19V166.21H86.27V166.91H91.34V165.86H96.42V167.25H101.49V167.25H106.57V167.6H111.64V167.95H116.72V167.6H121.79V168.3H126.87V167.95H131.94V168.3H137.01V169H142.09V168.65H147.16V168.65H152.24V168.65H157.31V168.65H162.39V166.56H167.46V167.95H172.54V166.91H177.61V168.3H182.69V167.25H187.76V168.65H192.84V169H197.91V169H202.99V168.65H208.06V169H213.13V169H218.21V169H223.28V169H228.36V169H233.43V169H238.51V169H243.58V169H248.66V169H253.73V169H258.81V169H263.88V169H268.96V169H274.03V169H279.1V169H284.18V169H289.25V169H294.33V169H299.4V169H304.48V169H309.55V169H314.63V169H319.7V169H324.78V169H329.85V169H334.93V169H340V169" style="fill: rgb(227, 63, 25); fill-opacity: 0.12; stroke-width: 0;"/></g></g><g class="errorbars"/><g class="lines"><path class="js-line" d="M0,168.3H5.07V152.6H10.15V123.98H15.22V127.12H20.3V140.03H25.37V145.96H30.45V151.55H35.52V157.83H40.6V157.48H45.67V158.18H50.75V165.16H55.82V161.67H60.9V162.37H65.97V165.51H71.04V164.11H76.12V166.56H81.19V166.21H86.27V166.91H91.34V165.86H96.42V167.25H101.49V167.25H106.57V167.6H111.64V167.95H116.72V167.6H121.79V168.3H126.87V167.95H131.94V168.3H137.01V169H142.09V168.65H147.16V168.65H152.24V168.65H157.31V168.65H162.39V166.56H167.46V167.95H172.54V166.91H177.61V168.3H182.69V167.25H187.76V168.65H192.84V169H197.91V169H202.99V168.65H208.06V169H213.13V169H218.21V169H223.28V169H228.36V169H233.43V169H238.51V169H243.58V169H248.66V169H253.73V169H258.81V169H263.88V169H268.96V169H274.03V169H279.1V169H284.18V169H289.25V169H294.33V169H299.4V169H304.48V169H309.55V169H314.63V169H319.7V169H324.78V169H329.85V169H334.93V169H340V169" style="vector-effect: none; fill: none; stroke: rgb(227, 63, 25); stroke-opacity: 1; stroke-width: 1.5px; opacity: 1;"/></g><g class="points"/><g class="text"/></g><g class="trace scatter trace723009" style="stroke-miterlimit: 2;"><g class="fills"><g><path class="js-fill" d="M340,169L0,169L0,163.76H5.07V116.65H10.15V8.45H15.22V52.78H20.3V95.01H25.37V132.7H30.45V151.9H35.52V158.88H40.6V159.93H45.67V165.16H50.75V164.46H55.82V165.86H60.9V166.56H65.97V166.91H71.04V166.91H76.12V165.86H81.19V167.25H86.27V167.25H91.34V167.95H96.42V167.95H101.49V168.65H106.57V168.3H111.64V168.65H116.72V169H121.79V168.65H126.87V169H131.94V168.65H137.01V168.3H142.09V168.65H147.16V169H152.24V169H157.31V168.65H162.39V168.65H167.46V169H172.54V168.65H177.61V168.65H182.69V168.65H187.76V169H192.84V168.65H197.91V168.65H202.99V169H208.06V169H213.13V169H218.21V168.65H223.28V169H228.36V169H233.43V169H238.51V169H243.58V169H248.66V169H253.73V169H258.81V169H263.88V169H268.96V169H274.03V169H279.1V169H284.18V169H289.25V169H294.33V169H299.4V169H304.48V169H309.55V169H314.63V169H319.7V169H324.78V169H329.85V169H334.93V169H340V169" style="fill: rgb(7, 106, 107); fill-opacity: 0.12; stroke-width: 0;"/></g></g><g class="errorbars"/><g class="lines"><path class="js-line" d="M0,163.76H5.07V116.65H10.15V8.45H15.22V52.78H20.3V95.01H25.37V132.7H30.45V151.9H35.52V158.88H40.6V159.93H45.67V165.16H50.75V164.46H55.82V165.86H60.9V166.56H65.97V166.91H71.04V166.91H76.12V165.86H81.19V167.25H86.27V167.25H91.34V167.95H96.42V167.95H101.49V168.65H106.57V168.3H111.64V168.65H116.72V169H121.79V168.65H126.87V169H131.94V168.65H137.01V168.3H142.09V168.65H147.16V169H152.24V169H157.31V168.65H162.39V168.65H167.46V169H172.54V168.65H177.61V168.65H182.69V168.65H187.76V169H192.84V168.65H197.91V168.65H202.99V169H208.06V169H213.13V169H218.21V168.65H223.28V169H228.36V169H233.43V169H238.51V169H243.58V169H248.66V169H253.73V169H258.81V169H263.88V169H268.96V169H274.03V169H279.1V169H284.18V169H289.25V169H294.33V169H299.4V169H304.48V169H309.55V169H314.63V169H319.7V169H324.78V169H329.85V169H334.93V169H340V169" style="vector-effect: none; fill: none; stroke: rgb(7, 106, 107); stroke-opacity: 1; stroke-width: 1.5px; opacity: 1;"/></g><g class="points"/><g class="text"/></g></g></g></g><g class="zerolinelayer-above"/><path class="xlines-above crisp" d="M79.2,270.4H420" style="fill: none; stroke-width: 0.8px; stroke: rgb(0, 0, 0); stroke-opacity: 1;"/><path class="ylines-above crisp" d="M79.6,101V270" style="fill: none; stroke-width: 0.8px; stroke: rgb(0, 0, 0); stroke-opacity: 1;"/><g class="overlines-above"/><g class="xaxislayer-above"><g class="xtick"><text text-anchor="middle" x="0" y="285.2" transform="translate(203.06,0)" style="font-family: Arial; font-size: 12px; fill: rgb(0, 0, 0); fill-opacity: 1; white-space: pre;">100</text></g><g class="xtick"><text text-anchor="middle" x="0" y="285.2" style="font-family: Arial; font-size: 12px; fill: rgb(0, 0, 0); fill-opacity: 1; white-space: pre;" transform="translate(329.93,0)">200</text></g></g><g class="yaxislayer-above"><g class="ytick"><text text-anchor="end" x="76.8" y="4.199999999999999" transform="translate(0,270)" style="font-family: Arial; font-size: 12px; fill: rgb(0, 0, 0); fill-opacity: 1; white-space: pre;">0</text></g><g class="ytick"><text text-anchor="end" x="76.8" y="4.199999999999999" style="font-family: Arial; font-size: 12px; fill: rgb(0, 0, 0); fill-opacity: 1; white-space: pre;" transform="translate(0,235.1)">100</text></g><g class="ytick"><text text-anchor="end" x="76.8" y="4.199999999999999" style="font-family: Arial; font-size: 12px; fill: rgb(0, 0, 0); fill-opacity: 1; white-space: pre;" transform="translate(0,200.2)">200</text></g><g class="ytick"><text text-anchor="end" x="76.8" y="4.199999999999999" style="font-family: Arial; font-size: 12px; fill: rgb(0, 0, 0); fill-opacity: 1; white-space: pre;" transform="translate(0,165.29000000000002)">300</text></g><g class="ytick"><text text-anchor="end" x="76.8" y="4.199999999999999" style="font-family: Arial; font-size: 12px; fill: rgb(0, 0, 0); fill-opacity: 1; white-space: pre;" transform="translate(0,130.39)">400</text></g></g><g class="overaxes-above"/></g></g><g class="polarlayer"/><g class="smithlayer"/><g class="ternarylayer"/><g class="geolayer"/><g class="funnelarealayer"/><g class="pielayer"/><g class="iciclelayer"/><g class="treemaplayer"/><g class="sunburstlayer"/><g class="glimages"/><defs id="topdefs-540c44"><g class="clips"/><clipPath id="legend540c44"><rect width="174" height="86" x="0" y="0"/></clipPath></defs><g class="layer-above"><g class="imagelayer"/><g class="shapelayer"/></g><g class="infolayer"><g class="legend" pointer-events="all" transform="translate(163,10.599999999999994)"><rect class="bg" shape-rendering="crispEdges" style="stroke: rgb(68, 68, 68); stroke-opacity: 1; fill: rgb(255, 255, 255); fill-opacity: 1; stroke-width: 0px;" width="174" height="86" x="0" y="0"/><g class="scrollbox" transform="" clip-path="url(#legend540c44)"><g class="groups"><g class="traces" transform="translate(0,14.5)" style="opacity: 1;"><text class="legendtext" text-anchor="start" x="40" y="4.680000000000001" style="font-family: Arial; font-size: 12px; fill: rgb(0, 0, 0); fill-opacity: 1; white-space: pre;">R (all real)</text><g class="layers"><g class="legendfill"><path class="js-fill" d="M5,-2h30v6h-30z" style="stroke-width: 0; fill: rgb(79, 79, 79); fill-opacity: 0.12;"/></g><g class="legendlines"><path class="js-line" d="M5,-2h30" style="fill: none; stroke: rgb(79, 79, 79); stroke-opacity: 1; stroke-width: 1.5px;"/></g><g class="legendsymbols"><g class="legendpoints"/></g></g><rect class="legendtoggle" x="0" y="-9.5" width="97.845703125" height="19" style="fill: rgb(0, 0, 0); fill-opacity: 0;"/></g><g class="traces" transform="translate(0,33.5)" style="opacity: 1;"><text class="legendtext" text-anchor="start" x="40" y="4.680000000000001" style="font-family: Arial; font-size: 12px; fill: rgb(0, 0, 0); fill-opacity: 1; white-space: pre;">Training (Generator)</text><g class="layers"><g class="legendfill"><path class="js-fill" d="M5,-2h30v6h-30z" style="stroke-width: 0; fill: rgb(119, 226, 177); fill-opacity: 0.12;"/></g><g class="legendlines"><path class="js-line" d="M5,-2h30" style="fill: none; stroke: rgb(119, 226, 177); stroke-opacity: 1; stroke-width: 1.5px;"/></g><g class="legendsymbols"><g class="legendpoints"/></g></g><rect class="legendtoggle" x="0" y="-9.5" width="150.767578125" height="19" style="fill: rgb(0, 0, 0); fill-opacity: 0;"/></g><g class="traces" transform="translate(0,52.5)" style="opacity: 1;"><text class="legendtext" text-anchor="start" x="40" y="4.680000000000001" style="font-family: Arial; font-size: 12px; fill: rgb(0, 0, 0); fill-opacity: 1; white-space: pre;">Prefix, rep. = 1.20</text><g class="layers"><g class="legendfill"><path class="js-fill" d="M5,-2h30v6h-30z" style="stroke-width: 0; fill: rgb(227, 63, 25); fill-opacity: 0.12;"/></g><g class="legendlines"><path class="js-line" d="M5,-2h30" style="fill: none; stroke: rgb(227, 63, 25); stroke-opacity: 1; stroke-width: 1.5px;"/></g><g class="legendsymbols"><g class="legendpoints"/></g></g><rect class="legendtoggle" x="0" y="-9.5" width="137.876953125" height="19" style="fill: rgb(0, 0, 0); fill-opacity: 0;"/></g><g class="traces" transform="translate(0,71.5)" style="opacity: 1;"><text class="legendtext" text-anchor="start" x="40" y="4.680000000000001" style="font-family: Arial; font-size: 12px; fill: rgb(0, 0, 0); fill-opacity: 1; white-space: pre;">Soft-Prompt, rep. = 1.10</text><g class="layers"><g class="legendfill"><path class="js-fill" d="M5,-2h30v6h-30z" style="stroke-width: 0; fill: rgb(7, 106, 107); fill-opacity: 0.12;"/></g><g class="legendlines"><path class="js-line" d="M5,-2h30" style="fill: none; stroke: rgb(7, 106, 107); stroke-opacity: 1; stroke-width: 1.5px;"/></g><g class="legendsymbols"><g class="legendpoints"/></g></g><rect class="legendtoggle" x="0" y="-9.5" width="171.22265625" height="19" style="fill: rgb(0, 0, 0); fill-opacity: 0;"/></g></g></g><rect class="scrollbar" rx="20" ry="3" width="0" height="0" style="fill: rgb(128, 139, 164); fill-opacity: 1;" x="0" y="0"/></g><g class="g-gtitle"/><g class="g-xtitle"><text class="xtitle" x="250" y="311.90019531250005" text-anchor="middle" style="opacity: 1; font-family: Arial; font-size: 13px; fill: rgb(0, 0, 0); fill-opacity: 1; white-space: pre;">Sequence Length</text></g><g class="g-ytitle"><text class="ytitle" transform="rotate(-90,37.61855468750001,185.5)" x="37.61855468750001" y="185.5" text-anchor="middle" style="opacity: 1; font-family: Arial; font-size: 13px; fill: rgb(0, 0, 0); fill-opacity: 1; white-space: pre;">Count</text></g></g></svg>